<?xml version="1.0" standalone="no"?>
<!DOCTYPE svg PUBLIC "-//W3C//DTD SVG 20010904//EN"
 "http://www.w3.org/TR/2001/REC-SVG-20010904/DTD/svg10.dtd">
<svg version="1.0" xmlns="http://www.w3.org/2000/svg"
 width="2404.000000pt" height="820.000000pt" viewBox="0 0 2404.000000 820.000000"
 preserveAspectRatio="xMidYMid meet">

<g transform="translate(0.000000,820.000000) scale(0.100000,-0.100000)"
fill="#000000" stroke="none">
<path d="M0 4100 l0 -4100 12020 0 12020 0 0 4100 0 4100 -12020 0 -12020 0 0
-4100z m1220 2963 l0 -46 23 21 c33 31 57 29 28 -2 l-23 -25 27 -35 c22 -29
24 -36 11 -36 -9 0 -28 12 -41 28 l-24 27 -1 -27 c0 -16 -4 -28 -10 -28 -6 0
-10 35 -10 85 0 50 4 85 10 85 6 0 10 -21 10 -47z m780 32 c0 -8 -7 -15 -15
-15 -16 0 -20 12 -8 23 11 12 23 8 23 -8z m60 -30 c4 -34 6 -36 19 -22 7 10
23 17 34 17 20 0 20 0 -1 -23 -27 -29 -27 -39 -2 -62 23 -21 26 -35 6 -35 -8
0 -24 12 -35 28 l-20 27 -1 -27 c0 -18 -5 -28 -15 -28 -12 0 -15 16 -15 86 0
64 3 85 13 82 6 -3 14 -22 17 -43z m-1151 9 c12 -15 21 -39 21 -54 0 -15 -9
-39 -21 -54 -17 -21 -29 -26 -65 -26 l-44 0 0 80 0 80 44 0 c36 0 48 -5 65
-26z m1571 -54 c0 -47 -4 -80 -10 -80 -6 0 -10 29 -10 67 0 52 -3 64 -12 55
-16 -16 -28 -15 -28 3 0 7 8 19 18 24 37 22 42 14 42 -69z m-1130 55 c0 -8 7
-15 15 -15 8 0 15 -4 15 -10 0 -5 -7 -10 -15 -10 -11 0 -15 -11 -15 -35 0 -22
6 -38 15 -41 23 -9 18 -26 -7 -22 -19 2 -24 10 -26 48 -2 24 -8 48 -14 51 -6
4 -5 14 3 28 16 25 29 27 29 6z m580 1 c0 -8 6 -17 13 -20 10 -5 10 -7 0 -12
-15 -7 -17 -70 -3 -79 18 -11 10 -26 -12 -23 -19 2 -24 10 -26 48 -2 24 -9 48
-15 53 -9 7 -9 10 1 14 6 2 12 11 12 19 0 8 7 14 15 14 8 0 15 -6 15 -14z
m380 0 c0 -8 6 -17 13 -20 10 -5 10 -7 0 -12 -15 -7 -17 -70 -3 -79 18 -11 10
-26 -12 -23 -19 2 -24 10 -26 48 -2 24 -9 48 -15 53 -9 7 -9 10 1 14 6 2 12
11 12 19 0 8 7 14 15 14 8 0 15 -6 15 -14z m-1266 -38 c26 -37 20 -48 -24 -48
-22 0 -40 -5 -40 -10 0 -17 29 -23 45 -10 18 15 30 7 22 -15 -9 -23 -74 -20
-87 4 -25 47 -4 101 40 101 19 0 34 -8 44 -22z m120 6 c5 -13 1 -14 -24 -9
-40 9 -40 -13 0 -26 49 -18 34 -69 -21 -69 -31 0 -57 24 -39 35 7 4 17 2 23
-4 14 -14 37 -14 37 0 0 5 -13 15 -30 20 -21 8 -30 17 -30 33 0 30 7 36 46 36
20 0 34 -6 38 -16z m330 -16 c16 -46 -3 -82 -44 -86 -38 -4 -60 16 -60 56 0
45 18 63 58 60 30 -2 38 -8 46 -30z m140 0 c6 -18 6 -38 0 -55 -8 -23 -16 -29
-47 -31 -29 -3 -37 -7 -37 -23 0 -10 -4 -19 -10 -19 -6 0 -10 34 -10 81 l0 80
47 -3 c42 -3 49 -6 57 -30z m366 -28 c0 -47 -3 -60 -15 -60 -12 0 -15 13 -15
60 0 47 3 60 15 60 12 0 15 -13 15 -60z m238 48 c7 -7 12 -22 12 -35 0 -20 -5
-23 -42 -23 -39 0 -41 -1 -26 -16 13 -13 20 -14 38 -4 26 14 38 6 20 -15 -16
-20 -64 -19 -80 1 -8 8 -13 28 -13 44 0 16 5 36 13 44 15 19 61 21 78 4z m450
-20 c20 -43 -2 -83 -46 -83 -27 0 -32 -3 -32 -23 0 -15 -5 -22 -12 -20 -9 3
-14 31 -16 82 l-3 77 48 -3 c41 -3 50 -7 61 -30z m126 16 c3 -9 6 -36 6 -61 0
-57 -24 -55 -28 3 -2 21 -8 44 -13 49 -15 15 -39 -23 -39 -62 0 -18 -4 -33
-10 -33 -6 0 -10 27 -10 60 l0 60 44 0 c31 0 46 -5 50 -16z m146 -43 c0 -69
-19 -101 -59 -101 -29 0 -60 25 -47 37 4 4 16 2 26 -5 21 -13 50 -6 50 12 0 8
-12 11 -33 8 -30 -3 -35 0 -47 27 -10 26 -10 35 4 56 13 20 24 24 61 23 l45
-1 0 -56z m-1160 3 c0 -11 -9 -14 -37 -12 -52 4 -56 28 -4 28 30 0 41 -4 41
-16z m750 -49 c0 -8 -7 -15 -15 -15 -8 0 -15 7 -15 15 0 8 7 15 15 15 8 0 15
-7 15 -15z m-850 -164 c5 -11 10 -37 10 -59 l0 -39 53 5 c65 5 109 -14 126
-55 7 -18 11 -69 9 -133 -3 -105 -3 -105 -28 -105 -25 0 -25 1 -30 100 -3 55
-9 108 -14 117 -10 23 -40 31 -82 23 l-34 -6 0 -114 c0 -106 -1 -114 -20 -120
-45 -14 -50 5 -50 205 0 102 3 190 7 193 13 14 43 7 53 -12z m2444 -3 c8 -30
8 -352 0 -372 -3 -9 -14 -16 -23 -16 -38 0 -41 18 -41 217 l0 193 29 0 c21 0
30 -6 35 -22z m1849 -9 c12 -6 32 -21 45 -32 29 -27 30 -97 2 -137 -34 -48
-157 -92 -181 -64 -16 20 7 54 37 54 39 0 83 28 90 56 16 62 -37 95 -115 74
-44 -12 -61 -7 -61 15 0 39 127 62 183 34z m-4818 -8 c6 -10 15 -53 42 -194
20 -106 29 -103 67 24 26 88 38 102 74 92 23 -5 32 -27 72 -160 22 -73 24 -69
61 127 20 111 26 124 55 118 27 -5 28 -43 5 -161 -33 -166 -47 -204 -77 -211
-42 -11 -68 14 -92 91 -12 38 -22 74 -22 81 0 22 -17 13 -28 -15 -6 -16 -18
-54 -27 -86 -18 -62 -39 -81 -81 -71 -37 9 -48 43 -104 314 -6 32 -6 47 3 52
17 11 45 10 52 -1z m1179 -7 c9 -8 16 -29 16 -45 0 -28 2 -29 44 -29 31 0 46
-5 50 -16 10 -26 -2 -34 -50 -34 l-44 0 0 -84 c0 -94 10 -112 59 -103 33 7 50
-15 30 -39 -18 -21 -102 -18 -130 5 -23 19 -24 23 -24 173 0 186 8 213 49 172z
m354 7 c8 -5 17 -24 21 -42 6 -30 11 -34 43 -37 39 -3 68 -27 52 -42 -5 -5
-27 -10 -49 -12 l-40 -3 -3 -78 c-3 -92 5 -107 59 -107 25 0 39 -5 39 -13 0
-25 -24 -37 -72 -37 -39 0 -54 5 -73 25 -24 24 -25 28 -25 184 0 154 2 167 30
170 3 0 11 -3 18 -8z m-537 -86 c40 -21 49 -50 49 -150 0 -111 -13 -127 -102
-133 -87 -6 -135 16 -144 63 -13 70 24 107 116 115 47 4 55 8 58 27 5 33 -30
47 -99 39 -54 -6 -59 -5 -59 12 0 10 10 24 23 30 33 16 124 14 158 -3z m904
-10 c0 -16 -9 -21 -47 -26 -26 -4 -52 -10 -57 -14 -7 -4 -11 -50 -11 -115 0
-89 -3 -109 -16 -114 -21 -8 -20 -8 -38 10 -12 12 -16 38 -16 115 0 55 5 109
10 119 18 33 61 50 120 47 47 -2 55 -5 55 -22z m256 -3 c30 -27 32 -34 37
-110 6 -102 -1 -128 -38 -147 -35 -18 -135 -20 -170 -2 -33 17 -52 57 -44 97
9 42 54 70 115 70 50 0 74 17 63 43 -9 24 -38 30 -105 22 -49 -6 -59 -4 -59 8
0 29 41 47 107 47 55 0 67 -4 94 -28z m176 -72 c18 -52 35 -103 39 -114 9 -27
19 -9 50 94 33 107 36 114 63 118 44 7 37 -40 -31 -211 -31 -79 -53 -99 -93
-83 -20 7 -76 131 -110 243 -14 45 -9 54 30 50 16 -2 27 -22 52 -97z m465 61
c32 -33 39 -46 36 -72 -4 -39 -13 -44 -113 -59 -44 -7 -82 -13 -83 -15 -2 -2
-1 -12 2 -23 13 -38 95 -52 159 -27 13 6 17 2 17 -17 0 -32 -34 -48 -101 -48
-98 0 -149 50 -149 149 0 72 11 99 53 129 23 16 46 22 86 22 49 0 57 -3 93
-39z m457 25 c38 -20 61 -58 61 -100 0 -40 2 -39 -117 -56 -46 -7 -83 -17 -83
-22 0 -5 12 -20 26 -35 22 -22 32 -25 72 -20 26 2 55 8 64 12 29 12 36 -25 9
-47 -29 -23 -119 -25 -164 -3 -69 33 -100 142 -62 216 32 62 128 89 194 55z
m315 -2 c9 -24 -2 -34 -37 -34 -77 0 -77 0 -77 -125 0 -106 -1 -114 -20 -120
-41 -13 -50 10 -50 125 0 60 3 116 6 125 16 40 164 64 178 29z m364 0 c12 -8
22 -22 22 -30 0 -13 -10 -15 -62 -9 -35 3 -69 2 -76 -3 -22 -15 -9 -46 23 -55
57 -17 114 -50 121 -69 3 -11 3 -34 0 -52 -9 -48 -55 -70 -135 -64 -69 5 -97
23 -87 56 7 19 9 20 41 6 66 -27 119 -14 113 27 -2 18 -14 27 -54 39 -77 23
-94 39 -96 84 -2 58 34 86 110 86 36 0 66 -6 80 -16z m309 -8 c27 -23 28 -29
31 -123 5 -128 -6 -144 -96 -151 -34 -2 -72 -2 -84 1 -38 10 -68 45 -68 78 0
63 33 90 120 99 51 5 55 7 58 32 4 34 -20 42 -97 33 -48 -5 -59 -4 -64 9 -11
27 31 46 105 46 56 0 71 -4 95 -24z m141 11 c6 -7 25 -52 42 -100 18 -48 35
-89 40 -92 15 -9 27 18 60 135 7 25 14 51 16 58 2 7 14 12 26 10 37 -5 35 -70
-4 -168 -6 -14 -14 -34 -18 -45 -38 -103 -107 -195 -146 -195 -39 0 -39 26 0
72 36 42 45 71 25 84 -23 14 -105 227 -94 244 9 14 41 12 53 -3z m370 -219 c7
-7 12 -22 12 -35 0 -27 -42 -42 -65 -23 -28 23 -11 70 25 70 9 0 21 -5 28 -12z
m2392 -1748 c0 -25 -25 -36 -45 -20 -20 16 -7 40 21 40 17 0 24 -6 24 -20z
m11504 4 c3 -9 6 -76 6 -150 0 -113 -3 -136 -16 -141 -30 -11 -37 14 -36 134
1 181 0 173 21 173 10 0 22 -7 25 -16z m256 1 c8 -10 11 -52 8 -140 -3 -145
-9 -155 -85 -155 -82 0 -123 40 -123 120 0 59 41 101 100 103 52 2 60 10 60
55 0 35 19 43 40 17z m-14009 -15 c10 -6 19 -18 19 -26 0 -13 -9 -14 -55 -9
-53 7 -56 6 -85 -25 -43 -46 -43 -109 1 -152 28 -29 34 -30 84 -25 61 6 77 -4
43 -27 -33 -23 -113 -21 -149 5 -80 57 -79 199 3 249 36 22 107 27 139 10z
m1223 -5 c8 -21 -25 -35 -84 -35 l-51 0 3 -32 c3 -32 5 -33 53 -36 28 -2 55
-8 60 -13 17 -17 -25 -39 -73 -39 l-43 0 3 -37 3 -38 68 -3 c58 -2 68 -6 65
-20 -3 -14 -17 -18 -73 -20 -121 -5 -115 -12 -115 136 0 86 4 132 12 140 19
19 164 16 172 -3z m9748 -7 c21 -34 90 -247 83 -258 -13 -21 -37 -9 -51 25
-14 34 -16 35 -69 35 -53 0 -55 -1 -69 -35 -15 -36 -42 -46 -52 -20 -3 8 1 34
9 57 49 138 71 194 80 206 15 19 53 14 69 -10z m1954 -29 c7 -24 18 -72 24
-106 7 -35 15 -63 19 -63 3 0 17 34 30 76 22 69 26 75 49 72 21 -3 28 -14 50
-82 29 -89 33 -86 52 40 14 89 24 114 45 114 22 0 18 -87 -8 -189 -33 -126
-73 -137 -112 -28 -11 30 -23 58 -26 61 -3 4 -14 -18 -23 -48 -24 -74 -37 -90
-69 -82 -21 5 -29 16 -41 59 -31 109 -46 201 -34 214 18 22 32 9 44 -38z
m-12720 -24 c10 -8 17 -15 14 -15 -3 -1 -25 -7 -50 -13 l-45 -12 -3 -87 c-2
-68 -6 -88 -17 -88 -8 0 -17 5 -21 12 -8 13 -7 175 1 189 6 9 59 27 86 28 8 1
24 -6 35 -14z m165 5 c45 -13 59 -42 59 -125 0 -78 -17 -95 -97 -95 -62 0 -93
23 -93 69 0 38 29 59 92 67 30 4 48 12 48 20 0 22 -37 35 -81 28 -36 -6 -41
-5 -37 12 3 16 30 30 63 33 6 0 26 -4 46 -9z m390 -78 c15 -37 31 -67 35 -67
9 0 31 57 43 110 5 23 12 30 31 30 28 0 29 -16 3 -95 -36 -113 -90 -200 -123
-200 -31 0 -33 19 -6 55 l26 34 -24 48 c-13 26 -32 72 -42 101 -17 46 -17 54
-4 62 21 13 30 1 61 -78z m918 60 c50 -37 52 -129 4 -176 -21 -21 -35 -26 -74
-26 l-48 0 -3 -37 c-2 -30 -7 -38 -23 -38 -19 0 -20 8 -23 129 -2 108 0 132
14 147 30 33 109 34 153 1z m258 -4 c15 -14 23 -33 23 -55 0 -35 -3 -37 -88
-47 -52 -5 -60 -11 -45 -34 7 -12 26 -17 64 -18 30 -1 58 -2 63 -3 5 -1 1 -10
-9 -21 -21 -23 -88 -27 -129 -9 -57 26 -72 135 -26 184 38 40 106 42 147 3z
m209 18 c21 -16 19 -18 -46 -34 l-35 -8 -5 -85 c-4 -66 -8 -84 -20 -84 -12 0
-15 18 -15 100 l0 100 35 12 c47 16 63 16 86 -1z m301 4 c28 -10 43 -30 56
-71 9 -28 -10 -42 -68 -50 -67 -9 -84 -21 -64 -45 10 -12 25 -15 67 -12 29 3
56 0 59 -5 10 -17 -29 -37 -73 -37 -84 0 -120 36 -118 122 1 66 31 98 100 107
6 0 25 -4 41 -9z m279 -15 c23 -14 24 -21 24 -110 0 -77 -3 -95 -15 -95 -23 0
-35 34 -35 104 0 55 -3 67 -20 76 -25 13 -57 5 -69 -18 -4 -9 -8 -48 -8 -87
-1 -62 -3 -70 -19 -70 -17 0 -19 10 -22 94 -3 101 -2 104 53 123 28 10 83 2
111 -17z m251 4 c24 -21 14 -32 -23 -26 -46 8 -80 -8 -94 -44 -10 -24 -9 -34
7 -61 17 -30 24 -33 66 -34 54 -1 65 -7 47 -29 -8 -10 -30 -15 -62 -15 -41 0
-54 5 -79 29 -24 24 -29 38 -29 76 0 67 20 98 75 117 25 8 74 1 92 -13z m217
-4 c28 -18 44 -71 27 -88 -5 -5 -36 -14 -67 -18 -66 -9 -83 -21 -63 -45 10
-12 25 -15 67 -12 29 3 56 0 59 -5 11 -18 -30 -37 -80 -37 -40 0 -53 5 -77 29
-38 37 -47 75 -29 125 24 70 99 93 163 51z m8410 0 c26 -17 42 -73 27 -88 -6
-6 -36 -14 -67 -18 -66 -9 -83 -21 -63 -45 10 -12 25 -15 67 -12 29 3 56 0 59
-5 11 -18 -30 -37 -77 -37 -52 0 -83 18 -105 60 -55 107 59 210 159 145z m210
15 c14 -5 26 -17 26 -26 0 -13 -7 -15 -42 -10 -82 12 -93 -30 -14 -53 102 -30
85 -131 -21 -131 -52 0 -70 7 -75 30 -2 11 9 14 52 14 44 1 55 4 58 18 3 18
-1 21 -76 48 -37 14 -50 47 -32 80 19 36 74 49 124 30z m241 -5 c39 -19 55
-51 55 -109 0 -62 -41 -106 -99 -106 -78 0 -114 34 -114 110 0 53 18 85 57
104 39 20 60 20 101 1z m285 5 c66 7 100 3 120 -15 19 -17 20 -28 18 -109 -2
-73 -6 -91 -18 -91 -12 0 -16 16 -18 75 -2 61 -6 78 -23 92 -14 12 -27 15 -42
9 -20 -7 -23 -17 -27 -92 -5 -76 -7 -84 -25 -84 -18 0 -20 8 -25 84 -4 73 -8
85 -25 91 -11 4 -29 4 -40 0 -17 -6 -21 -19 -25 -91 -4 -66 -8 -84 -20 -84
-12 0 -15 18 -15 100 l0 100 35 12 c20 7 50 10 70 6 19 -3 46 -5 60 -3z m367
-11 c8 -7 21 -26 29 -42 22 -42 0 -63 -71 -69 -63 -5 -74 -12 -58 -36 8 -13
25 -17 67 -17 33 0 56 -4 56 -10 0 -23 -26 -35 -76 -35 -45 0 -57 4 -83 31
-25 25 -31 39 -31 74 0 58 16 90 54 110 34 17 88 14 113 -6z m732 -14 c46 -45
35 -156 -18 -185 -51 -27 -138 -1 -160 47 -27 59 5 149 59 164 39 12 93 0 119
-26z m205 29 c29 -11 16 -30 -26 -40 l-43 -9 -5 -85 c-5 -77 -7 -85 -25 -85
-19 0 -20 7 -20 95 l0 95 35 17 c37 19 58 22 84 12z m-12994 -23 c0 -15 -29
-63 -50 -81 -14 -12 -50 -64 -50 -71 0 -5 25 -9 55 -9 40 0 55 -4 55 -14 0
-20 -23 -26 -93 -26 -84 0 -97 9 -74 52 10 18 33 50 52 72 19 21 35 42 35 47
0 5 -20 9 -44 9 -45 0 -63 11 -51 30 3 6 42 10 86 10 70 0 79 -2 79 -19z m685
-11 c25 -38 37 -38 68 0 28 32 57 40 57 14 0 -8 -14 -33 -31 -54 l-31 -39 32
-40 c19 -24 30 -46 27 -55 -9 -24 -22 -20 -56 19 -19 22 -36 33 -46 29 -8 -3
-15 -9 -15 -13 0 -11 -40 -51 -51 -51 -24 0 -19 33 11 70 l32 40 -30 47 c-17
26 -29 51 -26 55 11 17 40 6 59 -22z m910 -80 c0 -98 -1 -105 -20 -105 -19 0
-20 8 -23 108 -3 108 -3 108 20 105 22 -3 23 -6 23 -108z m8901 43 c19 -93 25
-96 48 -23 18 57 24 65 48 68 24 3 28 -1 44 -57 25 -83 41 -74 59 32 6 39 28
58 46 40 7 -7 3 -38 -11 -94 -36 -135 -76 -155 -111 -53 -9 26 -21 50 -27 52
-5 1 -18 -22 -28 -53 -30 -97 -67 -87 -101 26 -12 41 -22 87 -22 102 -1 24 3
28 21 25 18 -2 24 -14 34 -65z m-10166 -632 c0 -6 -4 -13 -10 -16 -5 -3 -10 1
-10 9 0 9 5 16 10 16 6 0 10 -4 10 -9z m280 -1 c0 -5 -7 -10 -16 -10 -8 0 -12
5 -9 10 3 6 10 10 16 10 5 0 9 -4 9 -10z m910 -101 c0 -71 -4 -108 -10 -104
-11 7 -14 198 -3 208 12 13 13 7 13 -104z m90 -5 c0 -96 -9 -128 -24 -88 -8
20 -8 168 0 188 14 37 24 -3 24 -100z m84 95 c-3 -5 -10 -7 -15 -3 -5 3 -7 10
-3 15 3 5 10 7 15 3 5 -3 7 -10 3 -15z m1036 -83 c0 -104 -6 -116 -62 -116
-67 0 -97 57 -66 125 11 24 26 29 75 25 18 -1 23 6 29 34 11 63 24 28 24 -68z
m8620 95 c0 -6 -4 -13 -10 -16 -5 -3 -10 1 -10 9 0 9 5 16 10 16 6 0 10 -4 10
-9z m280 -1 c0 -5 -7 -10 -16 -10 -8 0 -12 5 -9 10 3 6 10 10 16 10 5 0 9 -4
9 -10z m910 -101 c0 -71 -4 -108 -10 -104 -11 7 -14 198 -3 208 12 13 13 7 13
-104z m90 -5 c0 -96 -9 -128 -24 -88 -8 20 -8 168 0 188 14 37 24 -3 24 -100z
m85 107 c3 -5 1 -12 -5 -16 -5 -3 -10 1 -10 9 0 18 6 21 15 7z m1035 -95 c0
-104 -6 -116 -62 -116 -67 0 -97 57 -66 125 11 24 26 29 75 25 18 -1 23 6 29
34 11 63 24 28 24 -68z m-14503 82 c6 -7 13 -22 16 -33 3 -11 17 -51 31 -90
30 -81 29 -75 16 -75 -5 0 -17 14 -25 31 -15 27 -20 30 -58 27 -34 -2 -44 -8
-55 -30 -12 -27 -32 -38 -32 -19 0 8 34 104 62 174 11 29 29 35 45 15z m639
-49 l29 -6 -32 -8 c-32 -7 -33 -9 -33 -56 0 -44 3 -51 28 -61 l27 -12 -30 -4
c-43 -6 -55 18 -55 113 0 90 9 112 26 68 8 -18 22 -30 40 -34z m1925 1 c11 0
17 -4 14 -10 -3 -5 -15 -10 -26 -10 -18 0 -20 -6 -17 -52 3 -46 6 -53 26 -56
35 -5 26 -24 -10 -20 l-33 3 -2 105 c-2 99 -1 103 13 73 9 -22 21 -33 35 -33z
m2070 0 c11 0 17 -4 14 -10 -3 -5 -15 -10 -26 -10 -16 0 -19 -7 -19 -55 0 -48
3 -55 19 -55 11 0 23 -4 26 -10 4 -6 -7 -10 -25 -10 -24 0 -33 6 -40 26 -11
29 -13 144 -3 170 6 15 9 13 20 -14 9 -21 20 -32 34 -32z m6386 48 c6 -7 13
-22 16 -33 3 -11 17 -51 31 -90 30 -81 29 -75 16 -75 -5 0 -17 14 -25 31 -15
27 -20 30 -58 27 -34 -2 -44 -8 -55 -30 -12 -27 -32 -38 -32 -19 0 5 16 52 36
105 35 92 50 110 71 84z m634 -48 c11 0 17 -4 14 -10 -3 -5 -15 -10 -26 -10
-16 0 -19 -7 -19 -50 0 -46 3 -52 28 -62 l27 -12 -30 -4 c-43 -6 -55 18 -55
113 0 91 9 112 27 66 9 -21 20 -31 34 -31z m1930 0 c11 0 17 -4 14 -10 -3 -5
-15 -10 -26 -10 -18 0 -20 -6 -17 -52 3 -46 6 -53 26 -56 35 -5 26 -24 -10
-20 l-33 3 -2 105 c-2 99 -1 103 13 73 9 -22 21 -33 35 -33z m2070 0 c11 0 17
-4 14 -10 -3 -5 -15 -10 -26 -10 -16 0 -19 -7 -19 -55 0 -48 3 -55 19 -55 11
0 23 -4 26 -10 4 -6 -7 -10 -25 -10 -24 0 -33 6 -40 26 -11 29 -13 144 -3 170
6 15 9 13 20 -14 9 -21 20 -32 34 -32z m-14667 -6 c18 -18 23 -144 6 -144 -6
0 -10 28 -10 65 0 61 -2 65 -25 71 -46 12 -55 0 -55 -71 0 -37 -4 -65 -10 -65
-5 0 -10 24 -10 53 0 63 -16 90 -51 85 -22 -3 -24 -7 -27 -71 -2 -48 -7 -67
-15 -64 -18 5 -22 121 -4 135 7 6 51 13 97 15 47 1 86 4 87 5 1 1 9 -5 17 -14z
m1007 -6 c12 -19 11 -138 -1 -138 -5 0 -10 24 -10 53 0 63 -16 90 -51 85 -22
-3 -24 -8 -29 -67 -7 -91 -30 -95 -30 -7 0 72 -9 84 -55 72 -23 -6 -25 -10
-25 -71 0 -39 -4 -65 -10 -65 -7 0 -10 27 -8 73 l3 72 70 5 c97 7 136 4 146
-12z m194 -11 c41 -58 -1 -131 -71 -125 -33 3 -42 9 -58 38 -17 32 -17 39 -5
65 8 16 24 34 36 41 31 15 81 6 98 -19z m643 5 c14 -19 16 -118 2 -127 -6 -4
-10 6 -11 22 -3 97 -13 115 -59 111 -23 -3 -25 -8 -30 -67 -7 -89 -30 -96 -30
-9 0 35 4 68 8 75 8 12 66 21 92 14 8 -2 21 -11 28 -19z m199 -8 c19 -30 12
-90 -14 -110 -25 -19 -83 -17 -105 3 -33 30 -20 121 21 134 31 11 82 -4 98
-27z m1098 18 c-36 -7 -45 -23 -45 -78 0 -29 -4 -56 -10 -59 -6 -4 -10 20 -10
65 0 64 2 71 22 79 12 4 31 5 43 2 20 -5 20 -5 0 -9z m7879 2 c18 -18 23 -144
6 -144 -6 0 -10 28 -10 65 0 61 -2 65 -25 71 -46 12 -55 0 -55 -71 0 -37 -4
-65 -10 -65 -5 0 -10 24 -10 53 0 63 -16 90 -51 85 -22 -3 -24 -7 -27 -71 -2
-48 -7 -67 -15 -64 -18 5 -22 121 -4 135 7 6 51 13 97 15 47 1 86 4 87 5 1 1
9 -5 17 -14z m1007 -6 c12 -19 11 -138 -1 -138 -5 0 -10 24 -10 53 0 63 -16
90 -51 85 -22 -3 -24 -8 -29 -67 -7 -91 -30 -95 -30 -7 0 72 -9 84 -55 72 -23
-6 -25 -10 -25 -71 0 -39 -4 -65 -10 -65 -7 0 -10 27 -8 73 l3 72 70 5 c97 7
136 4 146 -12z m194 -11 c41 -58 -1 -131 -71 -125 -33 3 -42 9 -58 38 -17 32
-17 39 -5 65 8 16 24 34 36 41 31 15 81 6 98 -19z m643 5 c6 -9 12 -39 12 -68
0 -64 -20 -85 -21 -22 -1 83 -12 100 -59 96 -23 -3 -25 -8 -30 -67 -7 -89 -30
-96 -30 -9 0 35 4 68 8 75 8 12 66 21 92 14 8 -2 21 -11 28 -19z m199 -8 c19
-30 12 -90 -14 -110 -25 -19 -83 -17 -105 3 -33 30 -20 121 21 134 31 11 82
-4 98 -27z m1098 18 c-36 -7 -45 -23 -45 -78 0 -29 -4 -56 -10 -59 -6 -4 -10
20 -10 65 0 64 2 71 22 79 12 4 31 5 43 2 20 -5 20 -5 0 -9z m383 -10 c14 -19
16 -132 2 -132 -5 0 -10 24 -10 54 0 63 -18 89 -59 84 -24 -3 -26 -7 -31 -67
-7 -89 -30 -96 -30 -9 0 35 4 68 8 75 8 12 66 21 92 14 8 -2 21 -11 28 -19z
m-15200 6 c14 -14 16 -138 2 -138 -12 0 -19 29 -22 90 -3 43 -5 45 -33 45
l-30 0 -3 -67 c-2 -50 -7 -68 -17 -68 -10 0 -15 18 -17 68 -3 61 -5 67 -26 70
-39 6 -52 -15 -52 -79 0 -33 -4 -59 -10 -59 -11 0 -14 133 -3 143 12 12 198 8
211 -5z m188 -5 c24 -32 17 -53 -18 -54 -18 -1 -41 -1 -50 0 -17 2 -34 -32
-23 -49 3 -5 24 -10 46 -10 21 0 39 -5 39 -11 0 -6 -19 -9 -47 -7 -44 3 -50 6
-66 39 -16 33 -16 39 -2 73 14 34 18 36 62 36 32 0 50 -5 59 -17z m564 -52 c0
-39 -4 -73 -10 -76 -6 -4 -10 22 -10 69 0 44 4 76 10 76 6 0 10 -30 10 -69z
m191 42 c13 -34 8 -115 -8 -120 -8 -3 -13 16 -15 64 l-3 68 -35 0 -35 0 -5
-63 c-6 -75 -24 -86 -28 -18 -6 87 0 96 63 96 51 0 56 -2 66 -27z m89 -49 c0
-56 -3 -75 -12 -72 -8 3 -14 27 -16 63 -3 62 1 85 18 85 6 0 10 -30 10 -76z
m280 56 c14 -27 9 -122 -7 -128 -10 -3 -13 14 -13 62 0 72 -9 84 -55 72 -23
-6 -25 -10 -25 -71 0 -37 -4 -65 -10 -65 -6 0 -10 28 -10 65 0 61 -2 65 -25
71 -46 12 -55 0 -55 -71 0 -37 -4 -65 -10 -65 -11 0 -14 133 -3 143 3 4 50 7
104 7 89 0 99 -2 109 -20z m808 -61 c-2 -36 -7 -63 -13 -62 -11 3 -19 107 -10
131 12 33 26 -7 23 -69z m766 65 c10 -25 7 -134 -4 -134 -5 0 -10 28 -12 61
-3 69 -17 86 -61 75 -25 -6 -27 -10 -27 -66 0 -32 -4 -62 -10 -65 -11 -7 -14
127 -3 138 3 4 30 7 59 7 38 0 53 -4 58 -16z m444 4 c7 -7 12 -22 12 -35 0
-20 -5 -23 -41 -23 -48 0 -78 -22 -59 -45 7 -9 29 -15 51 -15 22 0 39 -4 39
-10 0 -5 -20 -10 -45 -10 -54 0 -85 28 -85 77 0 54 18 73 70 73 25 0 51 -5 58
-12z m158 5 c-3 -4 -21 -7 -39 -7 -46 -1 -45 -36 1 -48 40 -11 62 -49 42 -73
-14 -17 -100 -21 -100 -5 0 6 18 10 41 10 36 0 40 2 37 22 -2 14 -15 25 -38
33 -35 12 -47 32 -36 61 4 9 21 14 52 14 26 0 44 -3 40 -7z m180 -7 c8 -8 14
-23 14 -34 0 -15 -8 -21 -35 -24 -19 -2 -41 -1 -47 3 -7 4 3 9 23 11 21 2 34
8 34 17 0 21 -29 35 -59 27 -24 -6 -26 -10 -23 -49 3 -56 12 -67 52 -67 19 0
37 -4 40 -10 9 -15 -77 -12 -97 3 -26 20 -33 82 -14 112 13 20 25 25 57 25 22
0 47 -6 55 -14z m214 -25 c0 -68 14 -91 55 -91 l35 0 0 66 c0 48 3 65 13 62
14 -5 21 -68 12 -115 -6 -32 -8 -33 -52 -33 -66 0 -83 19 -83 92 0 32 4 58 10
58 6 0 10 -18 10 -39z m300 20 c13 -25 13 -131 0 -131 -5 0 -10 24 -10 54 0
63 -18 89 -59 84 -24 -3 -26 -7 -31 -67 -7 -87 -30 -96 -30 -13 0 88 3 92 66
92 42 0 55 -4 64 -19z m6838 7 c14 -14 16 -138 2 -138 -12 0 -19 29 -22 90 -3
43 -5 45 -33 45 l-30 0 -3 -67 c-2 -50 -7 -68 -17 -68 -10 0 -15 18 -17 68 -3
63 -5 67 -27 70 -35 5 -51 -22 -51 -85 0 -29 -4 -53 -10 -53 -11 0 -14 133 -3
143 12 12 198 8 211 -5z m188 -5 c24 -32 17 -53 -18 -54 -71 -2 -73 -3 -73
-29 0 -22 5 -25 43 -28 54 -4 55 -22 1 -22 -66 0 -100 52 -73 115 13 33 17 35
61 35 32 0 50 -5 59 -17z m564 -52 c0 -39 -4 -73 -10 -76 -6 -4 -10 22 -10 69
0 44 4 76 10 76 6 0 10 -30 10 -69z m191 42 c13 -34 8 -115 -8 -120 -8 -3 -13
16 -15 64 l-3 68 -35 0 -35 0 -5 -63 c-6 -75 -24 -86 -28 -18 -6 87 0 96 63
96 51 0 56 -2 66 -27z m89 -49 c0 -56 -3 -75 -12 -72 -8 3 -14 27 -16 63 -3
62 1 85 18 85 6 0 10 -30 10 -76z m280 56 c14 -27 9 -122 -7 -128 -10 -3 -13
14 -13 62 0 72 -9 84 -55 72 -23 -6 -25 -10 -25 -71 0 -37 -4 -65 -10 -65 -6
0 -10 28 -10 65 0 61 -2 65 -25 71 -46 12 -55 0 -55 -71 0 -37 -4 -65 -10 -65
-11 0 -14 133 -3 143 3 4 50 7 104 7 89 0 99 -2 109 -20z m808 -61 c-2 -36 -7
-63 -13 -62 -11 3 -19 107 -10 131 12 33 26 -7 23 -69z m766 65 c10 -25 7
-134 -4 -134 -5 0 -10 28 -12 61 -3 69 -17 86 -61 75 -25 -6 -27 -10 -27 -66
0 -32 -4 -62 -10 -65 -11 -7 -14 127 -3 138 3 4 30 7 59 7 38 0 53 -4 58 -16z
m444 4 c7 -7 12 -22 12 -35 0 -20 -5 -23 -41 -23 -48 0 -78 -22 -59 -45 7 -9
29 -15 51 -15 22 0 39 -4 39 -10 0 -5 -20 -10 -45 -10 -54 0 -85 28 -85 77 0
54 18 73 70 73 25 0 51 -5 58 -12z m158 5 c-3 -4 -21 -7 -39 -7 -46 -1 -45
-36 1 -48 40 -11 62 -49 42 -73 -14 -17 -100 -21 -100 -5 0 6 18 10 41 10 36
0 40 2 37 22 -2 14 -15 25 -38 33 -35 12 -47 32 -36 61 4 9 21 14 52 14 26 0
44 -3 40 -7z m180 -7 c8 -8 14 -23 14 -34 0 -15 -8 -21 -35 -24 -19 -2 -41 -1
-47 3 -7 4 3 9 23 11 21 2 34 8 34 17 0 21 -29 35 -59 27 -24 -6 -26 -10 -23
-49 3 -56 12 -67 52 -67 19 0 37 -4 40 -10 9 -15 -77 -12 -97 3 -26 20 -33 82
-14 112 13 20 25 25 57 25 22 0 47 -6 55 -14z m214 -25 c0 -68 14 -91 55 -91
l35 0 0 66 c0 48 3 65 13 62 14 -5 21 -68 12 -115 -6 -32 -8 -33 -52 -33 -66
0 -83 19 -83 92 0 32 4 58 10 58 6 0 10 -18 10 -39z m-5585 -221 c-3 -5 -10
-10 -16 -10 -5 0 -9 5 -9 10 0 6 7 10 16 10 8 0 12 -4 9 -10z m-89 -38 c-6
-16 -1 -18 37 -18 36 1 46 -3 54 -21 14 -29 -10 -35 -87 -21 -55 9 -60 8 -81
-13 -13 -13 -22 -32 -21 -41 2 -10 0 -18 -5 -19 -4 0 -19 -2 -33 -4 -14 -1
-32 1 -40 6 -12 7 -11 9 5 9 19 1 19 2 -1 10 -24 10 -37 70 -19 87 6 5 42 13
80 17 39 4 74 11 80 17 16 16 37 10 31 -9z m531 2 c-3 -3 -12 -4 -19 -1 -8 3
-5 6 6 6 11 1 17 -2 13 -5z m-53 -13 c9 -15 -16 -29 -66 -36 -33 -5 -48 -4
-48 4 0 6 10 11 23 11 12 1 33 7 47 15 30 17 37 18 44 6z m-726 -53 c-2 -18
-9 -23 -31 -21 -19 1 -27 -3 -27 -14 0 -10 6 -14 20 -10 11 3 20 1 20 -4 0 -5
9 -9 20 -9 11 0 20 -4 20 -10 0 -6 -36 -9 -87 -9 -73 1 -84 4 -69 14 11 9 13
15 6 20 -5 3 -8 11 -5 16 4 5 16 2 29 -6 27 -18 39 -10 23 16 -15 24 -2 36 19
18 15 -12 18 -11 28 4 16 25 38 22 34 -5z m462 -28 c0 -5 -9 -10 -19 -10 -11
0 -26 -3 -35 -6 -9 -3 -16 -1 -16 4 0 11 21 19 53 21 9 0 17 -3 17 -9z m-117
-27 c-7 -2 -19 -2 -25 0 -7 3 -2 5 12 5 14 0 19 -2 13 -5z m-928 -27 c29 -8
41 -18 43 -34 2 -16 10 -22 28 -22 15 0 24 -6 24 -15 0 -11 -11 -15 -36 -15
-21 0 -42 -6 -48 -15 -8 -11 -18 -13 -41 -6 -16 5 -25 10 -20 10 6 1 -3 12
-20 26 l-30 25 30 25 c22 18 25 25 13 25 -9 0 -20 -4 -23 -10 -10 -15 -52 -12
-59 5 -4 12 4 15 47 14 29 0 70 -6 92 -13z m-8605 -136 c0 -67 -4 -110 -10
-110 -11 0 -14 202 -3 213 12 13 13 7 13 -103z m90 -7 c0 -51 -4 -95 -10 -98
-6 -4 -10 34 -10 107 0 77 3 108 10 98 5 -8 10 -56 10 -107z m1660 108 c0 -6
-4 -13 -10 -16 -5 -3 -10 1 -10 9 0 9 5 16 10 16 6 0 10 -4 10 -9z m540 0 c0
-6 -4 -13 -10 -16 -5 -3 -10 1 -10 9 0 9 5 16 10 16 6 0 10 -4 10 -9z m820
-95 c0 -58 -4 -96 -12 -104 -18 -18 -88 -15 -110 5 -12 11 -18 30 -18 57 1 57
18 76 69 76 38 0 41 2 41 28 0 16 3 32 6 35 17 17 24 -12 24 -97z m278 -14
c-2 -65 -7 -97 -15 -100 -10 -3 -13 23 -13 108 0 100 2 111 15 100 13 -10 15
-32 13 -108z m580 11 l-3 -108 -52 -3 c-44 -3 -53 0 -67 20 -24 34 -20 85 9
114 14 14 30 22 36 19 5 -4 21 -4 35 -1 19 5 24 13 24 36 0 17 5 30 10 30 7 0
10 -38 8 -107z m7052 -3 c0 -67 -4 -110 -10 -110 -11 0 -14 202 -3 213 12 13
13 7 13 -103z m90 -7 c0 -51 -4 -95 -10 -98 -6 -4 -10 34 -10 107 0 77 3 108
10 98 5 -8 10 -56 10 -107z m1660 108 c0 -6 -4 -13 -10 -16 -5 -3 -10 1 -10 9
0 9 5 16 10 16 6 0 10 -4 10 -9z m540 0 c0 -6 -4 -13 -10 -16 -5 -3 -10 1 -10
9 0 9 5 16 10 16 6 0 10 -4 10 -9z m820 -95 c0 -58 -4 -96 -12 -104 -18 -18
-88 -15 -110 5 -12 11 -18 30 -18 57 1 57 18 76 69 76 38 0 41 2 41 28 0 16 3
32 6 35 17 17 24 -12 24 -97z m278 -14 c-2 -65 -7 -97 -15 -100 -10 -3 -13 23
-13 108 0 100 2 111 15 100 13 -10 15 -32 13 -108z m580 11 l-3 -108 -52 -3
c-44 -3 -53 0 -67 20 -24 34 -20 85 9 114 14 14 30 22 36 19 5 -4 21 -4 35 -1
19 5 24 13 24 36 0 17 5 30 10 30 7 0 10 -38 8 -107z m-13156 62 c2 -12 13
-21 26 -23 30 -5 28 -22 -3 -22 -23 0 -25 -3 -25 -49 0 -49 9 -65 45 -74 11
-3 2 -5 -20 -4 l-40 2 -3 105 c-2 66 1 101 7 95 5 -6 11 -19 13 -30z m378 -70
c0 -87 -3 -105 -15 -105 -12 0 -15 18 -15 105 0 87 3 105 15 105 12 0 15 -18
15 -105z m10642 70 c2 -12 13 -21 26 -23 30 -5 28 -22 -3 -22 -23 0 -25 -3
-25 -49 0 -49 9 -65 45 -74 11 -3 2 -5 -20 -4 l-40 2 -3 105 c-2 66 1 101 7
95 5 -6 11 -19 13 -30z m378 -70 c0 -87 -3 -105 -15 -105 -12 0 -15 18 -15
105 0 87 3 105 15 105 12 0 15 -18 15 -105z m-11836 71 c4 -17 14 -26 34 -28
24 -4 25 -5 7 -12 -11 -4 -26 -10 -32 -12 -14 -4 -18 -71 -5 -91 4 -7 19 -16
32 -22 23 -9 23 -10 -11 -10 -46 -1 -49 7 -49 115 0 81 11 110 24 60z m3558 2
c2 -17 11 -24 31 -26 15 -2 27 -7 27 -12 0 -5 -12 -10 -27 -12 -25 -3 -28 -7
-31 -46 -4 -48 8 -69 41 -75 13 -3 7 -5 -14 -6 -25 -1 -39 4 -43 15 -10 25 -7
184 3 184 5 0 11 -10 13 -22z m7468 -19 c0 -4 12 -9 28 -11 24 -4 25 -5 7 -12
-11 -4 -26 -10 -32 -12 -8 -2 -13 -20 -13 -42 0 -43 15 -68 45 -75 11 -3 4 -5
-16 -6 -46 -1 -49 6 -49 117 1 79 2 85 15 68 8 -11 15 -23 15 -27z m3552 19
c2 -17 11 -24 31 -26 15 -2 27 -7 27 -12 0 -5 -12 -10 -27 -12 -25 -3 -28 -7
-31 -46 -4 -48 8 -69 41 -75 13 -3 7 -5 -14 -6 -25 -1 -39 4 -43 15 -10 25 -7
184 3 184 5 0 11 -10 13 -22z m-7452 -32 c0 -18 -9 -26 -41 -36 -33 -11 -42
-11 -48 -1 -9 15 -31 -37 -31 -73 0 -12 -9 -27 -20 -33 -16 -11 -18 -17 -9
-43 6 -16 17 -30 25 -30 8 0 14 -6 14 -14 0 -25 21 -29 27 -6 3 13 11 19 19
16 11 -4 14 7 14 49 0 49 -2 55 -21 55 -14 0 -19 5 -17 18 2 12 15 18 46 20
25 2 42 -1 42 -7 0 -6 14 -11 31 -11 18 0 28 -4 24 -10 -4 -6 -1 -17 5 -25 9
-11 7 -21 -9 -44 -15 -21 -18 -30 -9 -34 10 -3 10 -7 0 -19 -9 -11 -10 -18 -2
-23 5 -3 10 -11 10 -17 0 -7 -5 -6 -14 1 -11 10 -16 8 -21 -9 -8 -24 -25 -17
-25 11 0 23 -13 25 -30 4 -15 -18 -6 -45 15 -45 25 0 17 -20 -16 -38 -67 -37
-94 -59 -91 -75 2 -10 -4 -17 -12 -17 -18 0 -60 -56 -52 -69 4 -5 29 -8 57 -7
56 3 92 27 71 48 -7 7 -12 18 -12 25 0 15 46 18 55 3 8 -13 52 -13 60 -1 3 5
2 12 -3 15 -12 7 -2 69 12 78 19 13 24 9 47 -32 13 -22 25 -40 29 -40 11 0 41
41 35 50 -3 4 -7 28 -10 53 -3 36 -1 47 13 52 14 5 12 9 -13 22 -29 16 -29 16
-8 26 12 5 22 17 21 26 -2 32 2 51 12 51 6 0 13 -8 16 -17 3 -10 10 -26 14
-35 7 -13 5 -18 -10 -23 -11 -4 -20 -11 -20 -16 0 -14 16 -11 30 6 7 8 21 15
31 15 11 0 19 7 19 18 0 14 2 14 9 3 7 -10 4 -19 -6 -26 -25 -18 -9 -45 27
-45 33 0 38 14 14 41 -14 16 -14 19 10 34 14 10 26 21 26 26 0 14 -91 8 -97
-7 -9 -23 -36 -17 -30 6 3 11 1 23 -4 26 -6 3 -5 11 2 20 16 20 29 17 29 -6 0
-18 7 -20 58 -20 31 0 64 5 72 10 10 6 11 10 3 10 -7 0 -13 5 -13 10 0 6 9 10
20 10 11 0 20 -7 20 -15 0 -8 -9 -24 -20 -35 -26 -26 -25 -31 5 -20 28 11 32
3 10 -26 -8 -10 -15 -29 -15 -41 0 -13 -9 -32 -20 -43 -24 -24 -25 -29 -4 -45
22 -15 13 -53 -21 -93 -28 -34 -32 -52 -10 -52 8 0 15 -4 15 -9 0 -5 -15 -8
-32 -7 -27 1 -32 6 -30 21 3 24 -37 45 -86 45 -28 0 -35 -5 -48 -35 -7 -19
-14 -39 -14 -45 0 -15 19 -12 37 5 22 22 38 7 17 -17 -22 -23 -10 -50 25 -58
32 -7 31 -24 -1 -28 -42 -5 -36 -31 6 -29 19 2 37 5 41 8 11 12 56 -3 51 -17
-3 -7 0 -16 6 -20 7 -5 5 -12 -7 -21 -12 -8 -48 -13 -101 -13 -70 0 -82 2 -80
16 0 9 -5 19 -12 22 -9 3 -13 -3 -11 -14 3 -21 -27 -84 -40 -84 -10 0 -21 35
-21 71 0 24 -16 39 -39 39 -4 0 -14 -13 -24 -29 -12 -21 -22 -28 -37 -24 -25
7 -61 -23 -53 -43 5 -14 -8 -17 -92 -18 -20 -1 -31 -7 -33 -19 -3 -13 -10 -16
-30 -11 -15 3 -37 7 -49 10 -16 3 -23 0 -23 -11 0 -18 -36 -20 -44 -2 -3 8 -8
7 -16 -5 -6 -10 -17 -18 -24 -18 -19 0 -27 -25 -13 -39 6 -6 25 -11 41 -11 17
0 44 -7 60 -15 36 -19 46 -19 46 0 0 8 2 15 4 15 2 0 11 3 20 6 12 5 16 0 16
-19 0 -19 -6 -26 -22 -29 -15 -2 -22 -9 -20 -20 1 -9 -2 -19 -8 -23 -15 -9 7
-35 31 -35 33 0 30 -19 -3 -22 -36 -3 -55 -38 -21 -38 11 0 24 -5 31 -12 9 -9
12 -9 12 0 0 7 11 12 24 12 17 0 28 -9 38 -30 8 -19 25 -35 46 -42 17 -7 32
-18 32 -25 0 -7 5 -13 10 -13 6 0 10 6 10 14 0 16 19 25 38 19 10 -4 9 -11 -4
-31 -14 -21 -14 -27 -4 -30 8 -3 29 -20 47 -38 19 -19 43 -34 53 -34 11 0 20
-5 20 -10 0 -6 32 -10 81 -9 69 1 85 -2 108 -20 14 -12 34 -24 44 -28 9 -3 17
-9 17 -14 0 -5 17 -17 38 -28 38 -20 72 -51 55 -51 -9 0 -45 -71 -39 -77 2 -2
29 -5 61 -6 35 -2 60 -8 63 -15 3 -9 9 -9 24 -1 17 9 18 12 5 22 -35 29 -26
61 29 93 18 11 17 13 -9 23 -33 13 -34 44 -1 49 15 2 23 -4 27 -17 4 -16 14
-21 44 -22 21 -1 28 -4 17 -6 -19 -4 -33 -28 -34 -58 0 -8 110 -12 151 -6 4 1
9 15 13 31 6 35 30 40 46 10 7 -13 21 -20 40 -20 33 0 40 19 15 40 -17 14 -20
36 -5 45 5 3 28 0 50 -6 44 -13 74 -57 69 -101 -2 -13 0 -29 4 -35 15 -24 -4
-36 -50 -29 -41 5 -45 4 -61 -24 -20 -36 -42 -35 -60 3 -10 21 -20 27 -47 27
-21 0 -39 7 -47 18 -9 12 -29 18 -64 19 -28 1 -58 3 -65 5 -11 2 -14 -12 -14
-62 0 -36 -4 -71 -8 -78 -5 -7 0 -24 13 -43 19 -26 26 -29 52 -24 l30 7 -7
-43 c-4 -24 -9 -47 -12 -51 -7 -13 -32 -9 -57 8 -23 14 -25 14 -31 -6 -4 -14
-12 -19 -22 -16 -8 3 -21 6 -28 6 -26 0 -47 32 -41 62 3 16 -1 47 -8 70 -8 22
-12 46 -9 53 2 8 -10 20 -31 30 -20 10 -36 21 -36 26 0 5 -17 9 -37 9 -31 0
-46 -8 -85 -46 -41 -39 -50 -44 -67 -34 -16 8 -21 21 -21 48 0 21 4 42 9 47
15 15 -15 49 -35 41 -12 -4 -13 -10 -6 -19 7 -8 3 -20 -14 -40 -20 -24 -24
-25 -24 -9 0 10 -9 27 -20 37 -14 13 -17 22 -10 35 7 13 2 24 -20 45 -16 15
-30 39 -32 54 -4 34 -53 44 -63 12 -8 -25 -40 -28 -49 -5 -4 11 -13 14 -27 11
-12 -3 -22 0 -25 8 -3 8 -12 11 -19 9 -7 -3 -27 2 -43 10 -17 9 -39 13 -49 10
-10 -3 -14 -2 -8 3 16 13 16 63 0 63 -7 0 -15 -4 -17 -9 -1 -5 -21 -1 -43 9
-25 12 -44 15 -51 9 -13 -11 -136 -15 -151 -6 -7 4 -14 3 -18 -3 -3 -5 -16
-10 -28 -10 l-21 0 22 16 c12 8 34 17 47 18 34 4 39 10 23 35 -8 13 -19 19
-30 15 -15 -4 -18 1 -18 25 0 26 4 31 24 31 19 0 23 -4 19 -20 -8 -29 20 -51
54 -44 24 5 33 1 46 -20 19 -28 43 -36 33 -11 -3 8 -3 22 1 31 5 14 8 13 18
-5 11 -22 12 -22 34 -4 19 15 21 22 12 45 -13 33 -18 37 -72 39 -63 3 -70 7
-63 35 5 19 2 24 -13 24 -11 0 -28 9 -38 20 -16 17 -20 18 -45 5 -21 -11 -28
-23 -33 -55 -7 -51 -34 -85 -53 -69 -8 6 -12 15 -9 19 2 4 -4 16 -15 28 -16
17 -17 21 -5 26 28 10 17 36 -15 36 -32 0 -34 -4 -30 -82 1 -27 -4 -39 -19
-47 -36 -20 -44 -14 -37 28 4 28 2 40 -8 44 -21 8 -15 71 7 75 10 2 17 -3 17
-12 0 -9 5 -16 10 -16 6 0 10 7 10 15 0 8 14 17 36 21 20 4 48 18 62 32 20 19
22 24 8 18 -13 -4 -25 0 -38 14 -10 11 -25 20 -33 20 -8 0 -15 7 -15 16 0 21
-34 14 -38 -9 -2 -9 2 -17 8 -17 6 0 18 -7 26 -15 14 -13 13 -15 -3 -15 -11 0
-25 -6 -32 -12 -10 -11 -11 -10 -6 4 6 16 3 17 -26 12 -32 -5 -33 -5 -15 10
11 9 18 16 15 17 -2 0 -26 3 -53 6 -52 5 -82 28 -65 49 14 17 -14 37 -30 21
-11 -9 -14 -9 -18 1 -3 6 -9 12 -14 12 -5 0 -18 9 -30 21 -12 12 -31 19 -47
18 -15 -2 -38 3 -50 10 -13 7 -27 10 -30 6 -12 -12 24 -60 57 -77 63 -31 79
-68 31 -68 -22 0 -91 44 -103 66 -4 8 -16 14 -26 14 -29 0 -47 28 -33 50 12
19 7 30 -15 30 -8 0 -21 7 -30 15 -9 10 -23 13 -36 9 -17 -5 -19 -3 -12 12 4
11 9 30 10 43 2 13 8 28 14 34 7 7 5 14 -6 22 -16 12 -16 15 1 40 10 15 15 36
12 48 -3 11 -1 28 4 37 11 21 47 32 56 18 3 -5 12 -7 20 -4 8 3 15 1 15 -4 1
-6 2 -16 3 -22 0 -7 11 -14 24 -16 12 -2 22 -8 22 -13 0 -17 29 -9 44 13 19
26 21 47 4 30 -7 -7 -23 -12 -35 -12 -20 0 -22 3 -13 19 17 33 12 61 -10 61
-24 0 -25 6 -3 28 12 12 18 13 21 4 6 -18 39 -14 59 7 18 19 128 56 210 70 23
4 52 14 65 23 12 8 46 23 73 33 99 35 205 85 205 97 0 3 -10 8 -22 10 -15 2
-24 11 -26 26 -4 23 13 31 21 10 4 -9 15 -3 34 18 15 16 41 36 56 44 24 12 30
12 44 -3 13 -13 14 -19 3 -32 -9 -11 -16 -12 -25 -5 -16 13 -63 -3 -71 -25
-12 -30 1 -35 38 -15 21 11 48 20 60 20 32 1 58 23 58 51 0 17 3 20 9 11 12
-19 116 -12 117 8 3 41 4 42 50 39 33 -2 50 1 58 12 16 22 37 27 69 16 19 -6
27 -16 27 -31z m-7800 -7 c0 -5 -13 -6 -29 -3 -21 5 -34 1 -50 -15 -44 -44 -9
-119 50 -107 16 3 29 1 29 -4 0 -6 -20 -10 -44 -10 -53 0 -76 24 -76 78 0 48
35 80 83 74 20 -2 37 -8 37 -13z m4148 -1 c6 -6 12 -21 12 -34 0 -13 -6 -24
-12 -25 -7 0 -22 -2 -33 -5 -11 -2 -27 -1 -35 3 -10 4 -3 8 20 12 38 7 46 27
17 45 -21 14 -74 -13 -68 -35 2 -8 3 -24 3 -37 1 -28 40 -56 67 -47 10 3 22 1
26 -5 4 -6 -10 -10 -39 -10 -58 0 -86 25 -86 75 0 51 35 84 81 77 19 -2 40 -9
47 -14z m6872 1 c0 -5 -13 -6 -29 -3 -21 5 -34 1 -50 -15 -44 -44 -9 -119 50
-107 16 3 29 1 29 -4 0 -6 -20 -10 -44 -10 -53 0 -76 24 -76 78 0 48 35 80 83
74 20 -2 37 -8 37 -13z m-11930 -49 c0 -49 3 -61 20 -70 42 -22 59 -5 62 63 4
74 22 83 26 13 6 -86 -1 -96 -58 -96 -39 0 -52 4 -64 22 -16 22 -22 108 -9
121 17 17 23 2 23 -53z m450 25 c3 -16 3 -48 0 -70 -5 -39 -6 -40 -48 -43 -50
-4 -72 10 -72 44 0 27 26 44 69 44 24 0 31 4 31 19 0 23 -28 34 -64 25 -17 -4
-26 -2 -26 5 0 8 18 11 52 9 50 -3 53 -5 58 -33z m278 23 c15 -15 16 -138 2
-138 -5 0 -10 24 -10 53 0 66 -17 92 -53 83 -26 -6 -27 -9 -27 -72 0 -48 -3
-65 -12 -62 -8 3 -14 28 -16 66 -3 56 -5 62 -27 68 -38 9 -45 -3 -45 -72 0
-50 -3 -64 -15 -64 -12 0 -15 13 -15 59 0 93 -2 91 109 91 62 0 101 -4 109
-12z m356 -10 c9 -12 16 -36 16 -53 0 -50 -24 -75 -74 -75 -35 0 -47 5 -60 25
-20 31 -21 74 0 103 12 17 25 22 59 22 34 0 47 -5 59 -22z m254 10 c7 -7 12
-22 12 -35 0 -25 -38 -41 -67 -27 -15 6 -14 8 7 12 35 5 46 18 30 37 -16 19
-40 19 -65 1 -16 -12 -17 -18 -8 -39 9 -20 9 -27 0 -31 -21 -8 34 -48 60 -43
13 2 26 0 29 -4 9 -15 -80 -9 -101 7 -24 18 -28 91 -6 117 16 20 91 23 109 5z
m127 3 c-43 -7 -61 -36 -28 -47 57 -19 73 -30 73 -49 0 -32 -20 -45 -67 -45
-32 0 -43 4 -43 15 0 13 4 14 20 5 24 -13 56 -5 64 15 6 16 -6 26 -49 40 -24
8 -31 17 -33 43 l-3 32 53 -1 c51 -2 52 -2 13 -8z m391 2 c-3 -4 -21 -7 -39
-7 -36 -1 -51 -32 -20 -42 53 -17 64 -28 61 -58 -3 -30 -5 -31 -52 -31 -31 0
-51 5 -54 13 -3 9 3 10 23 2 35 -13 67 -4 63 18 -2 9 -20 25 -40 34 -43 21
-51 31 -43 58 5 17 15 20 57 20 28 0 48 -3 44 -7z m84 -68 c0 -43 -4 -75 -10
-75 -6 0 -10 32 -10 75 0 43 4 75 10 75 6 0 10 -32 10 -75z m368 50 c16 -36
15 -100 -2 -114 -8 -7 -36 -11 -63 -9 -44 3 -48 5 -51 31 -4 34 20 56 61 57
31 0 48 27 26 41 -8 5 -29 7 -46 4 -20 -4 -33 -2 -33 5 0 5 21 10 48 10 43 0
50 -3 60 -25z m172 -50 c0 -43 -4 -75 -10 -75 -6 0 -10 32 -10 75 0 43 4 75
10 75 6 0 10 -32 10 -75z m190 -30 c0 -63 -4 -105 -10 -105 -5 0 -10 14 -10
30 0 29 -2 30 -44 30 -54 0 -71 18 -71 75 0 60 16 75 81 75 l54 0 0 -105z m80
52 c0 -64 23 -93 65 -83 23 6 25 11 25 66 0 32 5 62 10 65 7 5 10 -17 8 -67
l-3 -73 -48 -3 c-64 -4 -77 10 -77 87 0 34 4 61 10 61 6 0 10 -24 10 -53z
m278 41 c12 -12 16 -95 6 -122 -7 -19 -94 -22 -112 -4 -30 30 3 78 53 78 40 0
47 7 34 32 -9 16 -18 19 -45 15 -19 -3 -34 -2 -34 4 0 13 84 11 98 -3z m456
-10 c21 -29 20 -72 0 -103 -13 -20 -25 -25 -57 -25 -53 0 -77 22 -77 72 0 60
17 78 72 78 37 0 50 -5 62 -22z m276 7 c20 -24 17 -90 -4 -114 -29 -32 -89
-29 -115 5 -12 15 -21 37 -21 49 0 12 9 34 21 49 16 21 29 26 64 26 26 0 47
-6 55 -15z m118 3 c-27 -9 -28 -13 -28 -74 0 -36 -4 -64 -10 -64 -11 0 -14
133 -3 143 3 4 20 7 37 6 l31 -1 -27 -10z m466 -10 c9 -12 16 -36 16 -53 0
-51 -24 -75 -75 -75 -51 0 -75 24 -75 75 0 51 24 75 75 75 34 0 47 -5 59 -22z
m246 3 c11 -22 14 -90 4 -115 -7 -19 -94 -22 -112 -4 -32 32 -2 73 58 80 17 2
25 9 25 23 0 17 -6 20 -37 19 -21 -1 -38 3 -38 7 0 5 20 9 45 9 34 0 47 -5 55
-19z m284 3 c10 -26 7 -134 -4 -134 -6 0 -10 26 -10 59 0 66 -15 87 -55 77
-23 -6 -25 -10 -25 -71 0 -37 -4 -65 -10 -65 -5 0 -10 24 -10 53 0 66 -17 92
-53 83 -26 -6 -27 -9 -27 -71 0 -51 -3 -65 -15 -65 -12 0 -15 14 -15 63 0 36
5 68 12 75 8 8 47 12 109 12 79 0 98 -3 103 -16z m3616 6 c0 -5 -7 -10 -15
-10 -8 0 -15 5 -15 10 0 6 7 10 15 10 8 0 15 -4 15 -10z m860 0 c0 -5 -7 -10
-15 -10 -8 0 -15 5 -15 10 0 6 7 10 15 10 8 0 15 -4 15 -10z m1670 -50 c0 -49
3 -61 20 -70 42 -22 59 -5 62 63 4 74 22 83 26 13 6 -86 -1 -96 -58 -96 -39 0
-52 4 -64 22 -16 22 -22 108 -9 121 17 17 23 2 23 -53z m450 25 c3 -16 3 -48
0 -70 -5 -39 -6 -40 -48 -43 -50 -4 -72 10 -72 44 0 27 26 44 69 44 24 0 31 4
31 19 0 23 -28 34 -64 25 -17 -4 -26 -2 -26 5 0 8 18 11 52 9 50 -3 53 -5 58
-33z m278 23 c15 -15 16 -138 2 -138 -5 0 -10 24 -10 53 0 66 -17 92 -53 83
-26 -6 -27 -9 -27 -72 0 -48 -3 -65 -12 -62 -8 3 -14 28 -16 66 -3 56 -5 62
-27 68 -38 9 -45 -3 -45 -72 0 -50 -3 -64 -15 -64 -12 0 -15 13 -15 59 0 93
-2 91 109 91 62 0 101 -4 109 -12z m356 -10 c9 -12 16 -36 16 -53 0 -50 -24
-75 -74 -75 -35 0 -47 5 -60 25 -20 31 -21 74 0 103 12 17 25 22 59 22 34 0
47 -5 59 -22z m254 10 c7 -7 12 -22 12 -35 0 -27 -38 -41 -67 -24 -16 9 -15
10 9 11 32 0 44 15 28 35 -16 19 -41 19 -65 1 -16 -12 -17 -18 -8 -39 9 -20 9
-27 0 -31 -21 -8 34 -48 60 -43 13 2 26 0 29 -4 9 -15 -80 -9 -101 7 -24 18
-28 91 -6 117 16 20 91 23 109 5z m127 3 c-43 -7 -61 -36 -28 -47 57 -19 73
-30 73 -49 0 -32 -20 -45 -67 -45 -32 0 -43 4 -43 15 0 13 4 14 20 5 24 -13
56 -5 64 15 6 16 -6 26 -49 40 -24 8 -31 17 -33 43 l-3 32 53 -1 c51 -2 52 -2
13 -8z m391 2 c-3 -4 -21 -7 -39 -7 -36 -1 -51 -32 -20 -42 53 -17 64 -28 61
-58 -3 -30 -5 -31 -52 -31 -31 0 -51 5 -54 13 -3 9 3 10 23 2 35 -13 67 -4 63
18 -2 9 -20 25 -40 34 -43 21 -51 31 -43 58 5 17 15 20 57 20 28 0 48 -3 44
-7z m84 -74 c0 -39 -4 -69 -10 -69 -6 0 -10 32 -10 76 0 47 4 73 10 69 6 -3
10 -37 10 -76z m368 56 c16 -36 15 -100 -2 -114 -8 -7 -36 -11 -63 -9 -44 3
-48 5 -51 31 -4 34 20 56 61 57 31 0 48 27 26 41 -8 6 -29 8 -46 5 -18 -3 -33
-1 -33 5 0 5 22 9 48 9 43 0 50 -3 60 -25z m172 -50 c0 -43 -4 -75 -10 -75 -6
0 -10 32 -10 75 0 43 4 75 10 75 6 0 10 -32 10 -75z m190 -30 c0 -63 -4 -105
-10 -105 -5 0 -10 14 -10 30 0 29 -2 30 -44 30 -54 0 -71 18 -71 75 0 60 16
75 81 75 l54 0 0 -105z m80 52 c0 -64 23 -93 65 -83 23 6 25 11 25 66 0 32 5
62 10 65 7 5 10 -17 8 -67 l-3 -73 -48 -3 c-64 -4 -77 10 -77 87 0 34 4 61 10
61 6 0 10 -24 10 -53z m278 41 c12 -12 16 -95 6 -122 -7 -19 -94 -22 -112 -4
-30 30 3 78 53 78 40 0 47 7 34 32 -9 16 -18 19 -45 15 -19 -3 -34 -2 -34 4 0
13 84 11 98 -3z m456 -10 c21 -29 20 -72 0 -103 -13 -20 -25 -25 -57 -25 -53
0 -77 22 -77 72 0 60 17 78 72 78 37 0 50 -5 62 -22z m275 8 c20 -24 18 -92
-3 -115 -29 -32 -89 -29 -115 5 -12 15 -21 37 -21 49 0 12 9 34 21 49 16 21
29 26 64 26 24 0 47 -6 54 -14z m119 2 c-27 -9 -28 -13 -28 -74 0 -36 -4 -64
-10 -64 -11 0 -14 133 -3 143 3 4 20 7 37 6 l31 -1 -27 -10z m466 -10 c9 -12
16 -36 16 -53 0 -51 -24 -75 -75 -75 -51 0 -75 24 -75 75 0 51 24 75 75 75 34
0 47 -5 59 -22z m246 3 c11 -22 14 -90 4 -115 -7 -19 -94 -22 -112 -4 -32 32
-2 73 58 80 17 2 25 9 25 23 0 17 -6 20 -37 19 -21 -1 -38 3 -38 7 0 5 20 9
45 9 34 0 47 -5 55 -19z m284 3 c10 -26 7 -134 -4 -134 -6 0 -10 26 -10 59 0
66 -15 87 -55 77 -23 -6 -25 -10 -25 -71 0 -37 -4 -65 -10 -65 -5 0 -10 24
-10 53 0 66 -17 92 -53 83 -26 -6 -27 -9 -27 -71 0 -51 -3 -65 -15 -65 -12 0
-15 14 -15 63 0 36 5 68 12 75 8 8 47 12 109 12 79 0 98 -3 103 -16z m184 4
c16 -16 15 -58 0 -59 -7 0 -22 -2 -33 -5 -11 -2 -27 -1 -35 3 -10 4 -3 8 20
12 38 7 46 27 17 45 -21 14 -74 -13 -68 -35 2 -8 3 -24 3 -37 1 -28 40 -56 67
-47 10 3 22 1 26 -5 4 -6 -10 -10 -38 -10 -55 0 -87 27 -87 73 0 52 24 77 74
77 23 0 47 -5 54 -12z m-7208 -62 c0 -18 -18 -24 -54 -17 -50 10 -44 31 8 31
33 0 46 -4 46 -14z m572 -11 c0 -5 -5 -11 -11 -13 -6 -2 -11 4 -11 13 0 9 5
15 11 13 6 -2 11 -8 11 -13z m-12639 -2 c-7 -2 -21 -2 -30 0 -10 3 -4 5 12 5
17 0 24 -2 18 -5z m12497 -53 c14 -4 19 -8 12 -9 -7 -1 -17 -12 -22 -26 -12
-32 -33 -32 -50 1 -12 22 -12 27 0 34 17 11 26 11 60 0z m-650 -21 c0 -5 -7
-9 -15 -9 -15 0 -20 12 -9 23 8 8 24 -1 24 -14z m564 -2 c14 -13 15 -20 4 -36
-28 -45 -58 -36 -58 17 0 25 -3 33 -9 23 -9 -14 -31 -7 -31 10 0 16 76 5 94
-14z m-374 -16 c0 -12 -28 -22 -34 -12 -3 5 -3 11 1 15 9 9 33 7 33 -3z m686
-16 c-8 -8 -19 -15 -25 -15 -6 0 -8 7 -5 15 4 8 15 15 26 15 17 0 18 -2 4 -15z
m314 -25 c0 -5 -5 -10 -11 -10 -5 0 -7 5 -4 10 3 6 8 10 11 10 2 0 4 -4 4 -10z
m-394 -27 c-10 -10 -19 5 -10 18 6 11 8 11 12 0 2 -7 1 -15 -2 -18z m-626 -13
c0 -5 -5 -10 -11 -10 -5 0 -7 5 -4 10 3 6 8 10 11 10 2 0 4 -4 4 -10z m740
-21 c0 -5 -6 -10 -12 -10 -7 -1 -26 -2 -43 -4 -16 -1 -47 -5 -67 -9 -22 -4
-45 -3 -55 3 -10 6 -13 11 -8 11 6 1 31 6 57 13 50 13 128 11 128 -4z m-1992
-11 c-3 -7 -11 -13 -19 -13 -8 0 -24 -10 -35 -23 -17 -18 -31 -22 -64 -20 -28
2 -44 -2 -47 -9 -3 -8 4 -13 17 -13 18 0 20 -3 11 -13 -17 -21 -1 -28 24 -11
31 20 102 9 83 -13 -6 -8 -20 -12 -30 -10 -11 3 -30 -6 -49 -24 -26 -24 -40
-29 -83 -29 -31 0 -61 -6 -74 -16 -13 -9 -25 -14 -27 -13 -1 2 -6 24 -10 48
-5 29 -4 41 3 37 22 -14 74 -13 79 0 3 8 14 14 24 14 19 0 23 9 20 43 -1 9 6
20 16 23 10 3 32 12 48 20 71 32 119 41 113 22z m-231 -55 c-4 -3 -2 -12 4
-20 17 -19 -32 -17 -57 3 -19 15 -18 15 3 11 13 -3 26 -1 29 4 3 5 10 9 16 9
6 0 8 -3 5 -7z m2133 -13 c0 -5 -2 -10 -4 -10 -3 0 -8 5 -11 10 -3 6 -1 10 4
10 6 0 11 -4 11 -10z m-190 -15 c0 -9 -6 -12 -15 -9 -8 4 -12 10 -9 15 8 14
24 10 24 -6z m-150 -10 c0 -8 -9 -15 -20 -15 -21 0 -27 -15 -10 -25 8 -5 8
-11 1 -19 -8 -9 -7 -18 3 -31 10 -14 27 -18 87 -18 41 -1 66 -3 57 -5 -10 -2
-18 -8 -18 -13 0 -5 -9 -9 -19 -9 -11 0 -23 -4 -26 -10 -3 -5 0 -10 7 -10 7 0
-11 -14 -41 -30 -30 -17 -61 -30 -69 -30 -8 0 -12 -6 -8 -15 3 -9 0 -15 -9
-15 -8 0 -15 7 -15 15 0 9 -7 15 -16 13 -30 -5 -25 17 6 30 34 16 40 32 10 32
-11 0 -20 4 -20 8 0 14 24 32 43 32 13 0 17 5 14 18 -3 9 -8 34 -12 55 -5 33
-4 37 15 37 11 0 20 5 20 10 0 6 5 10 10 10 6 0 10 -7 10 -15z m336 -22 c-10
-10 -19 5 -10 18 6 11 8 11 12 0 2 -7 1 -15 -2 -18z m-263 -3 c4 -16 14 -20
52 -20 25 0 44 -4 41 -8 -3 -5 -26 -8 -51 -7 -48 2 -83 24 -71 44 11 17 23 13
29 -9z m665 3 c5 -18 -23 -16 -39 3 -11 14 -10 15 11 12 13 -1 25 -9 28 -15z
m-89 -17 c7 -8 8 -17 3 -19 -4 -3 -13 3 -20 14 -14 22 0 26 17 5z m-2552 -18
c-3 -8 -6 -5 -6 6 -1 11 2 17 5 13 3 -3 4 -12 1 -19z m2456 5 c-7 -2 -19 -2
-25 0 -7 3 -2 5 12 5 14 0 19 -2 13 -5z m-2533 -28 c0 -13 8 -28 18 -34 16 -9
16 -10 -1 -17 -10 -4 -30 0 -44 7 -23 13 -27 12 -41 -9 -8 -12 -22 -22 -31
-22 -9 0 -24 -6 -33 -14 -14 -10 -15 -15 -5 -25 10 -11 7 -12 -13 -6 -43 12
-45 24 -8 39 19 8 42 26 52 40 21 33 20 39 -4 31 -14 -5 -20 -2 -20 9 0 9 9
16 20 16 11 0 20 -4 20 -10 0 -15 26 -12 40 5 20 24 50 19 50 -10z m2345 16
c3 -5 0 -13 -7 -17 -7 -5 -3 -10 13 -16 24 -9 24 -10 4 -24 -18 -13 -20 -13
-23 0 -4 18 -28 21 -37 6 -4 -6 -2 -17 5 -25 7 -8 7 -15 1 -19 -6 -4 -15 4
-22 16 -7 13 -19 28 -28 35 -11 8 -12 12 -3 13 6 0 12 4 12 10 0 5 -7 7 -15 4
-15 -6 -21 7 -8 19 10 11 101 8 108 -2z m-2235 -8 c0 -12 -33 -43 -47 -43 -19
0 -16 10 9 31 21 19 38 24 38 12z m2380 -10 c0 -13 -27 -21 -52 -15 -9 2 -14
10 -12 17 6 15 64 14 64 -2z m160 -3 c14 -4 19 -8 13 -9 -7 -1 -13 -7 -13 -13
0 -7 -8 -22 -16 -33 -16 -19 -16 -19 -11 8 3 19 0 30 -9 34 -17 6 -18 23 -1
22 6 -1 23 -5 37 -9z m-9640 -9 c0 -6 -4 -13 -10 -16 -5 -3 -10 1 -10 9 0 9 5
16 10 16 6 0 10 -4 10 -9z m6802 -26 c-11 -21 -25 -4 -16 20 4 10 10 13 16 7
7 -7 7 -16 0 -27z m4218 26 c0 -6 -4 -13 -10 -16 -5 -3 -10 1 -10 9 0 9 5 16
10 16 6 0 10 -4 10 -9z m-1320 -23 c0 -19 -2 -20 -10 -8 -13 19 -13 30 0 30 6
0 10 -10 10 -22z m-9430 -13 c0 -20 5 -25 25 -25 14 0 25 -4 25 -10 0 -5 -11
-10 -25 -10 -24 0 -25 -3 -25 -55 0 -54 1 -56 31 -62 24 -5 28 -8 16 -15 -9
-4 -26 -4 -41 2 -25 9 -26 12 -26 105 0 57 4 95 10 95 6 0 10 -11 10 -25z
m11020 0 c0 -20 5 -25 25 -25 14 0 25 -4 25 -10 0 -5 -11 -10 -25 -10 -24 0
-25 -3 -25 -55 0 -54 1 -56 31 -62 24 -5 28 -8 16 -15 -9 -4 -26 -4 -41 2 -25
9 -26 12 -26 105 0 57 4 95 10 95 6 0 10 -11 10 -25z m-4070 5 c0 -16 -39 -32
-62 -24 -21 6 -21 7 -3 20 22 16 65 19 65 4z m1636 -1 c11 -19 -12 -32 -34
-20 -14 7 -23 8 -27 1 -8 -12 -25 -13 -25 -1 0 4 15 13 33 19 43 14 45 14 53
1z m654 -14 c0 -8 -4 -15 -9 -15 -13 0 -22 16 -14 24 11 11 23 6 23 -9z
m-13434 -11 c-3 -9 -6 -19 -6 -23 0 -23 -176 -86 -233 -83 -15 1 -39 -3 -54
-9 -18 -6 -30 -6 -40 2 -10 9 -19 9 -39 -1 -27 -15 -51 -2 -41 23 7 19 121 60
163 59 23 -1 40 6 53 20 14 14 27 19 43 15 13 -4 30 -2 38 3 8 5 39 10 69 10
44 0 52 -3 47 -16z m13113 -3 c9 -6 10 -11 2 -15 -13 -8 -31 1 -31 15 0 11 11
11 29 0z m-9279 -12 c0 -7 -10 -9 -24 -5 -14 3 -32 3 -40 0 -21 -8 -20 -33 2
-40 68 -22 73 -26 70 -57 -2 -23 -9 -32 -29 -38 -36 -9 -79 0 -79 17 0 11 4
12 18 3 26 -16 74 -3 70 18 -3 16 -13 23 -60 42 -27 10 -39 47 -21 64 11 12
93 8 93 -4z m90 -70 c0 -52 -3 -70 -12 -67 -14 5 -24 109 -14 135 13 32 26 -3
26 -68z m180 62 c13 -25 13 -131 0 -131 -5 0 -10 19 -10 43 0 80 -21 108 -70
92 -17 -5 -20 -15 -20 -71 0 -36 -4 -64 -10 -64 -11 0 -14 133 -3 143 3 4 28
7 54 7 38 0 51 -4 59 -19z m9616 -3 c6 -4 19 -6 28 -2 10 4 16 1 16 -8 0 -15
52 -58 70 -58 5 0 10 -4 10 -10 0 -5 5 -10 11 -10 6 0 22 -9 35 -19 36 -28 3
-36 -41 -9 -50 29 -58 13 -12 -24 24 -20 37 -38 37 -54 0 -13 4 -24 9 -24 14
0 23 -32 12 -43 -5 -5 -18 -6 -30 -2 -16 5 -21 15 -21 44 0 46 -14 61 -59 61
-32 -1 -34 -2 -18 -14 23 -17 22 -26 -3 -26 -12 0 -25 10 -31 24 -10 22 -64
44 -77 31 -3 -3 -1 -5 5 -5 17 0 83 -65 83 -82 0 -9 -7 -19 -16 -22 -15 -6
-15 -8 0 -25 9 -10 35 -24 59 -31 23 -8 51 -22 63 -32 11 -10 30 -18 41 -18
31 0 53 -10 53 -24 0 -8 -12 -11 -36 -8 -34 4 -35 3 -24 -17 6 -12 19 -21 28
-19 26 4 42 -11 42 -38 0 -29 -10 -30 -52 -4 -39 24 -49 25 -42 5 3 -8 3 -19
-1 -25 -9 -15 -38 3 -95 61 -47 48 -53 50 -88 44 -35 -6 -41 -3 -75 34 -21 23
-42 41 -48 41 -6 0 -8 8 -4 19 7 22 -18 45 -49 46 -16 0 -21 6 -22 30 -1 40
-14 62 -41 67 -17 2 -20 7 -13 18 8 12 11 12 27 -2 27 -24 59 -30 75 -16 8 7
28 20 45 30 28 14 34 14 52 1 24 -16 29 -2 6 17 -11 9 -13 16 -5 24 12 12 13
46 1 46 -5 0 0 10 11 23 21 24 58 26 84 5z m1134 11 c0 -7 -10 -9 -24 -5 -14
3 -32 3 -40 0 -21 -8 -20 -33 2 -40 68 -22 73 -26 70 -57 -2 -23 -9 -32 -29
-38 -36 -9 -79 0 -79 17 0 11 4 12 18 3 26 -16 74 -3 70 18 -3 16 -13 23 -60
42 -27 10 -39 47 -21 64 11 12 93 8 93 -4z m90 -70 c0 -65 -10 -88 -24 -53 -8
21 -8 119 0 127 16 16 24 -9 24 -74z m180 62 c13 -25 13 -131 0 -131 -5 0 -10
24 -10 54 0 72 -25 99 -74 80 -12 -5 -16 -21 -16 -70 0 -36 -4 -64 -10 -64
-11 0 -14 133 -3 143 3 4 28 7 54 7 38 0 51 -4 59 -19z m-4504 -33 l32 -33
-55 -42 c-45 -35 -58 -41 -74 -32 -26 14 -37 5 -31 -26 2 -15 0 -25 -7 -25 -6
0 -11 -9 -11 -19 0 -22 -25 -34 -53 -25 -18 6 -18 7 4 18 15 7 25 22 27 39 3
23 0 27 -22 27 -15 0 -30 -8 -36 -20 -12 -23 -30 -27 -30 -7 0 23 34 47 58 40
26 -6 82 14 99 37 9 12 7 17 -10 23 -21 8 -20 10 14 27 20 11 39 26 42 35 9
22 17 19 53 -17z m-8846 7 c0 -9 -9 -15 -24 -15 -30 0 -43 17 -19 23 34 9 43
7 43 -8z m-730 -5 c0 -24 -74 -39 -115 -23 -14 5 -10 9 16 18 42 15 99 18 99
5z m12192 -25 c5 -42 -18 -49 -28 -9 -6 22 5 42 22 44 1 0 4 -16 6 -35z m649
4 c8 -16 6 -19 -15 -19 -28 0 -40 14 -32 35 7 18 33 9 47 -16z m-11125 6 c4
-8 14 -15 23 -15 11 -1 8 -5 -9 -14 -21 -12 -56 -14 -102 -7 -19 3 -5 22 25
35 42 19 56 19 63 1z m-2176 -5 c0 -5 -7 -10 -15 -10 -8 0 -15 5 -15 10 0 6 7
10 15 10 8 0 15 -4 15 -10z m10129 -9 c17 -11 5 -31 -19 -31 -21 0 -34 15 -25
30 8 12 25 13 44 1z m2206 -1 c3 -5 -1 -10 -9 -10 -9 0 -16 5 -16 10 0 6 4 10
9 10 6 0 13 -4 16 -10z m-1885 -20 c0 -5 -8 -10 -17 -10 -15 0 -16 2 -3 10 19
12 20 12 20 0z m-10710 -15 c-7 -8 -19 -15 -26 -15 -8 0 -11 6 -8 15 4 8 15
15 26 15 17 0 18 -3 8 -15z m12884 -11 c8 -22 8 -24 -8 -24 -15 0 -28 24 -19
34 11 10 21 7 27 -10z m-8905 -23 c-15 -5 -22 6 -14 19 6 9 10 9 16 -1 5 -8 4
-15 -2 -18z m8741 19 c0 -5 -4 -10 -10 -10 -5 0 -10 5 -10 10 0 6 5 10 10 10
6 0 10 -4 10 -10z m2279 -19 c-15 -5 -22 6 -14 19 6 9 10 9 16 -1 5 -8 4 -15
-2 -18z m-2839 -6 c0 -8 -7 -15 -16 -15 -14 0 -14 3 -4 15 7 8 14 15 16 15 2
0 4 -7 4 -15z m610 -25 c0 -11 -4 -20 -10 -20 -5 0 -10 9 -10 20 0 11 5 20 10
20 6 0 10 -9 10 -20z m-363 -22 c-3 -8 -6 -5 -6 6 -1 11 2 17 5 13 3 -3 4 -12
1 -19z m131 5 c2 -9 -8 -13 -35 -13 -36 1 -37 1 -18 16 22 17 46 15 53 -3z
m-1708 -15 c0 -16 -3 -19 -11 -11 -6 6 -8 16 -5 22 11 17 16 13 16 -11z m58
-29 c16 -25 11 -33 -16 -25 -21 7 -36 32 -27 46 8 13 28 3 43 -21z m2742 15
c0 -8 -4 -12 -10 -9 -5 3 -10 10 -10 16 0 5 5 9 10 9 6 0 10 -7 10 -16z
m-1453 0 c-3 -3 -12 -4 -19 -1 -8 3 -5 6 6 6 11 1 17 -2 13 -5z m770 -31 c-3
-3 -11 -2 -17 2 -8 5 -7 11 2 22 12 15 13 14 16 -1 2 -10 1 -20 -1 -23z
m-3177 10 c0 -5 -4 -14 -9 -22 -14 -21 28 -52 52 -39 24 12 34 3 18 -16 -7 -8
-20 -12 -28 -9 -12 5 -15 2 -10 -10 4 -12 1 -17 -9 -17 -12 0 -15 6 -11 20 4
16 -4 27 -34 45 -46 30 -43 29 -63 9 -15 -14 -16 -13 -16 10 0 22 4 25 28 23
15 -2 33 -6 39 -10 6 -4 13 0 17 8 5 15 26 21 26 8z m40 -3 c0 -5 -7 -10 -15
-10 -8 0 -15 5 -15 10 0 6 7 10 15 10 8 0 15 -4 15 -10z m2936 -37 c-3 -4 -14
1 -24 10 -15 16 -15 19 -2 27 11 7 17 4 24 -10 5 -11 6 -23 2 -27z m-10989 21
c-3 -3 -12 -4 -19 -1 -8 3 -5 6 6 6 11 1 17 -2 13 -5z m8436 -1 c-7 -2 -19 -2
-25 0 -7 3 -2 5 12 5 14 0 19 -2 13 -5z m175 -52 c-7 -12 -18 -21 -24 -21 -7
0 -15 -7 -18 -16 -3 -8 -10 -12 -16 -9 -13 8 -13 25 0 25 5 0 21 12 35 26 30
30 43 27 23 -5z m2808 14 c14 -13 13 -15 -5 -15 -12 0 -21 6 -21 15 0 8 3 15
6 15 3 0 12 -7 20 -15z m-14106 -10 c-30 -17 -40 -18 -40 -6 0 8 22 16 55 19
6 1 -1 -5 -15 -13z m2105 -4 c-8 -13 -65 -15 -65 -2 0 6 15 11 33 13 38 4 41
3 32 -11z m11098 4 c1 -5 -6 -11 -15 -13 -11 -2 -18 3 -18 13 0 17 30 18 33 0z
m87 5 c0 -5 -4 -10 -10 -10 -5 0 -10 5 -10 10 0 6 5 10 10 10 6 0 10 -4 10
-10z m167 -10 c1 -11 -2 -20 -8 -20 -10 0 -12 23 -2 33 9 9 9 10 10 -13z
m-2592 -21 c0 -20 6 -25 40 -29 33 -4 36 -6 17 -12 -12 -3 -24 -6 -26 -5 -3 1
-16 -9 -30 -22 l-26 -24 0 26 c0 29 -9 34 -28 15 -17 -17 -36 4 -27 31 7 22
52 52 70 47 6 -1 10 -14 10 -27z m193 25 c12 -4 22 -12 22 -19 0 -16 -52 -17
-62 -1 -17 26 -5 32 40 20z m2282 -10 c0 -8 -4 -12 -10 -9 -5 3 -10 10 -10 16
0 5 5 9 10 9 6 0 10 -7 10 -16z m347 -6 c-3 -8 -6 -5 -6 6 -1 11 2 17 5 13 3
-3 4 -12 1 -19z m-674 -43 c4 -8 15 -15 22 -15 12 0 15 -14 15 -60 0 -58 -1
-60 -25 -60 -38 0 -95 27 -95 44 0 9 4 16 10 16 5 0 14 9 20 21 10 17 8 21 -8
26 -18 4 -36 57 -26 74 6 10 77 -28 87 -46z m-1140 31 c13 -10 15 -15 5 -19
-19 -6 -38 3 -38 19 0 17 10 17 33 0z m2062 3 c12 -19 -5 -23 -22 -6 -16 16
-16 17 -1 17 9 0 20 -5 23 -11z m-1957 -31 c7 -10 21 -18 31 -18 11 0 21 -6
24 -14 3 -8 18 -16 34 -18 22 -2 27 -7 25 -25 -2 -12 2 -24 8 -28 17 -11 11
-34 -15 -57 -23 -20 -36 -46 -16 -34 12 8 34 -21 26 -34 -4 -6 -1 -17 5 -25 7
-8 8 -20 3 -29 -7 -13 -12 -13 -38 4 -16 11 -30 28 -30 37 0 14 -8 18 -39 18
-35 0 -39 3 -50 35 -11 34 -12 35 -66 36 -30 1 -61 -3 -68 -9 -9 -7 -16 -7
-24 1 -19 19 -28 14 -28 -13 0 -14 4 -25 9 -25 17 0 -12 -85 -38 -112 -14 -15
-32 -34 -39 -43 -21 -25 -37 -17 -57 27 l-18 43 -10 -28 -9 -28 -24 22 c-19
17 -21 25 -12 36 8 10 8 17 1 24 -16 16 -46 7 -49 -14 -3 -20 -22 -47 -34 -47
-9 0 -19 85 -13 109 2 10 19 25 38 34 31 15 32 15 28 -2 -3 -13 4 -22 26 -30
37 -16 55 -7 41 19 -15 27 -12 50 4 44 11 -4 16 6 21 39 6 41 10 45 46 57 22
7 40 11 42 9 1 -2 7 -13 13 -24 15 -27 36 -29 59 -7 20 19 21 19 48 -4 17 -15
37 -22 55 -20 15 2 33 4 41 5 10 1 10 7 -4 28 -17 25 -17 27 5 43 15 12 19 19
11 24 -6 4 -9 12 -5 17 7 11 24 2 42 -23z m187 11 c-8 -12 -55 -12 -55 0 0 10
39 20 53 13 4 -2 5 -8 2 -13z m-1195 7 c0 -3 -4 -8 -10 -11 -5 -3 -10 -1 -10
4 0 6 5 11 10 11 6 0 10 -2 10 -4z m620 -51 c-22 -27 -31 -15 -13 16 13 22 19
26 21 14 2 -9 -2 -22 -8 -30z m1292 19 c10 -21 9 -27 -3 -35 -20 -13 -23 -12
-36 18 -17 37 -16 43 7 43 12 0 25 -10 32 -26z m788 -28 c7 -9 19 -16 26 -16
8 0 14 -5 14 -11 0 -20 -21 -49 -35 -49 -16 0 -34 29 -28 46 2 6 -3 17 -12 24
-22 19 -20 43 3 31 10 -5 24 -17 32 -25z m-2630 5 c0 -27 -17 -35 -35 -17 -14
13 -13 16 2 25 26 15 33 13 33 -8z m760 9 c0 -5 -4 -10 -10 -10 -5 0 -10 5
-10 10 0 6 5 10 10 10 6 0 10 -4 10 -10z m384 4 c9 -3 16 -12 16 -19 0 -18
-41 -27 -58 -13 -10 9 -16 8 -23 -3 -7 -12 -9 -12 -9 2 0 32 36 48 74 33z
m1697 -14 c21 0 39 -4 39 -8 0 -9 -65 -6 -80 3 -6 3 -10 12 -9 18 0 9 2 9 6 0
2 -8 22 -13 44 -13z m-14231 -10 c0 -5 -7 -10 -15 -10 -8 0 -15 5 -15 10 0 6
7 10 15 10 8 0 15 -4 15 -10z m137 4 c-3 -3 -12 -4 -19 -1 -8 3 -5 6 6 6 11 1
17 -2 13 -5z m11170 -20 c-3 -3 -12 -4 -19 -1 -8 3 -5 6 6 6 11 1 17 -2 13 -5z
m3020 -8 c-3 -8 0 -17 8 -20 11 -4 11 -12 3 -40 -13 -41 -30 -38 -46 8 -19 51
-16 66 14 66 18 0 25 -4 21 -14z m-1732 -6 c3 -5 -3 -10 -14 -10 -12 0 -21 5
-21 10 0 6 6 10 14 10 8 0 18 -4 21 -10z m653 -2 c-3 -7 -11 -13 -18 -13 -7 0
-15 6 -17 13 -3 7 4 12 17 12 13 0 20 -5 18 -12z m542 2 c0 -5 -5 -10 -11 -10
-5 0 -7 5 -4 10 3 6 8 10 11 10 2 0 4 -4 4 -10z m-2370 -32 c0 -11 -42 -10
-59 1 -10 6 -6 11 15 18 28 10 43 2 44 -19z m210 -2 c-5 -5 -10 -18 -10 -28 0
-25 -41 -24 -71 2 -24 19 -24 19 -3 20 12 0 32 9 45 19 18 14 27 16 37 9 9 -8
10 -14 2 -22z m2070 30 c0 -3 -4 -8 -10 -11 -5 -3 -10 -1 -10 4 0 6 5 11 10
11 6 0 10 -2 10 -4z m-2706 -29 c-3 -7 -16 -20 -30 -30 -23 -17 -25 -17 -31
-1 -4 11 1 23 16 35 23 19 53 16 45 -4z m476 14 c0 -12 -20 -25 -27 -18 -7 7
6 27 18 27 5 0 9 -4 9 -9z m2414 -16 c3 -9 18 -15 36 -15 17 0 38 -7 46 -15
13 -13 13 -18 1 -35 -14 -20 -14 -20 -48 3 -19 12 -47 28 -64 35 -29 13 -29
14 -10 28 24 18 31 18 39 -1z m-2619 -28 c-8 -12 -18 -29 -22 -37 -9 -20 -45
-49 -60 -50 -19 0 -16 27 5 40 12 8 13 13 5 16 -24 10 -13 23 27 35 22 7 40
16 40 21 0 5 5 6 11 3 7 -5 5 -14 -6 -28z m-237 -6 c-24 -32 -38 -38 -38 -19
0 17 31 48 47 48 11 0 8 -8 -9 -29z m1522 10 c0 -29 -11 -51 -25 -51 -7 0 -16
-6 -18 -12 -3 -8 -6 -7 -6 4 -1 9 4 20 9 23 8 5 7 11 0 20 -15 18 -4 35 21 35
12 0 19 -7 19 -19z m-12140 -11 c0 -13 -29 -32 -40 -25 -14 9 -13 32 3 38 15
5 37 -2 37 -13z m13117 -6 c4 -12 14 -14 39 -9 42 7 43 -4 9 -60 -13 -22 -29
-50 -34 -62 -7 -16 -19 -23 -37 -23 -21 0 -25 3 -18 18 4 9 8 31 8 48 1 17 7
38 14 46 17 21 -11 45 -58 51 -27 3 -23 4 18 5 40 2 54 -2 59 -14z m-2074 -34
c7 0 18 5 25 12 16 16 28 2 13 -16 -17 -20 -63 -27 -81 -12 -30 26 -50 27 -60
3 -8 -20 -9 -19 -9 10 -1 31 1 32 29 27 21 -5 30 -3 30 7 0 8 8 4 20 -9 12
-12 26 -22 33 -22z m-8291 5 c15 -19 25 -24 44 -19 21 5 25 2 30 -25 4 -18 20
-41 40 -56 35 -27 37 -51 2 -42 -11 3 -21 0 -25 -9 -4 -12 -8 -12 -26 1 -12 8
-29 15 -38 15 -9 0 -19 6 -22 14 -5 11 0 12 24 3 22 -9 32 -8 41 1 17 17 -5
32 -48 32 -17 0 -45 5 -63 11 -18 6 -34 9 -37 7 -10 -11 9 -37 29 -41 15 -3
11 -5 -11 -6 -37 -1 -52 20 -32 44 7 9 10 18 6 22 -6 6 51 73 62 73 2 0 13
-11 24 -25z m8112 -1 c3 -8 2 -12 -4 -9 -6 3 -10 10 -10 16 0 14 7 11 14 -7z
m966 -24 c0 -7 10 -20 23 -31 l22 -19 -24 -20 c-13 -11 -38 -20 -57 -20 -30 0
-34 3 -34 25 0 14 -4 25 -10 25 -19 0 -10 20 14 31 13 6 27 20 30 32 4 18 6
18 20 4 9 -9 16 -21 16 -27z m-9660 21 c0 -6 -4 -13 -10 -16 -5 -3 -10 1 -10
9 0 9 5 16 10 16 6 0 10 -4 10 -9z m8400 -12 c0 -5 -10 -9 -21 -9 -18 0 -19 2
-9 15 12 15 30 12 30 -6z m-7705 -29 c-5 -8 -11 -8 -17 -2 -6 6 -7 16 -3 22 5
8 11 8 17 2 6 -6 7 -16 3 -22z m7863 15 c4 -4 1 -10 -7 -13 -7 -2 -22 -13 -33
-24 -18 -18 -18 -20 -1 -41 17 -24 83 -51 83 -36 0 5 5 9 10 9 6 0 10 -5 10
-11 0 -19 -28 -39 -56 -39 -22 0 -25 -3 -16 -12 7 -7 12 -22 12 -35 0 -27 -24
-31 -47 -8 -14 14 -14 18 1 34 24 27 19 45 -19 65 -26 14 -38 16 -48 8 -19
-16 -30 -2 -13 17 8 9 16 25 18 36 2 16 -3 21 -29 23 -18 2 -33 7 -33 11 0 4
13 6 29 3 17 -2 34 2 42 11 14 16 83 17 97 2z m2296 9 c10 -4 12 -11 6 -22 -5
-10 -11 -25 -14 -34 -8 -25 -25 -22 -37 6 -9 19 -8 28 2 40 16 17 21 18 43 10z
m952 -9 c-3 -8 -9 -21 -12 -29 -3 -9 3 -19 16 -26 18 -10 21 -17 15 -49 -6
-34 -3 -40 28 -64 27 -21 33 -31 30 -52 -6 -28 -24 -32 -46 -10 -9 8 -40 24
-70 35 -69 26 -92 50 -84 89 5 26 2 31 -27 45 -19 9 -39 16 -45 16 -6 0 -11 4
-11 9 0 13 43 22 54 11 6 -6 29 -10 53 -10 34 0 48 6 65 25 24 28 44 33 34 10z
m-10777 -9 c9 -11 9 -15 -1 -19 -16 -5 -48 10 -48 23 0 15 36 12 49 -4z m8989
-64 c12 -2 22 1 22 6 0 5 11 7 25 4 14 -2 39 1 56 8 21 9 33 10 41 2 7 -7 16
-7 29 1 14 8 21 9 30 0 17 -17 -11 -53 -41 -53 -33 -1 -80 -43 -80 -72 0 -13
-3 -18 -8 -12 -4 7 -16 13 -27 15 -12 3 -20 12 -20 23 0 12 -9 22 -25 26 -14
4 -41 15 -60 25 l-35 18 25 9 c33 12 35 15 21 32 -10 12 -10 18 1 29 11 13 14
10 18 -22 4 -28 10 -37 28 -39z m1392 52 c0 -22 -26 -28 -50 -11 -21 15 -21
15 7 25 32 11 43 7 43 -14z m100 22 c0 -11 -19 -15 -25 -6 -3 5 1 10 9 10 9 0
16 -2 16 -4z m67 -34 c-21 -4 -49 16 -41 29 3 5 17 1 32 -9 21 -14 23 -17 9
-20z m-13447 18 c12 -7 12 -12 2 -22 -6 -6 -12 -8 -12 -4 0 5 -6 3 -14 -3 -17
-14 -31 2 -22 24 6 17 24 19 46 5z m13950 -10 c0 -5 -4 -10 -9 -10 -6 0 -13 5
-16 10 -3 6 1 10 9 10 9 0 16 -4 16 -10z m-12069 -31 c4 -8 15 -33 25 -56 14
-36 22 -43 44 -43 41 0 55 -22 24 -37 -21 -10 -26 -9 -37 8 -13 23 -85 59
-115 59 -34 0 -35 30 -1 61 33 31 48 33 60 8z m-704 -5 c6 -18 -19 -31 -69
-36 -50 -6 -83 8 -70 29 12 20 133 26 139 7z m-1233 -29 c-5 -30 -4 -35 13
-35 10 0 26 9 36 20 21 25 37 26 37 3 0 -23 -11 -38 -33 -46 -15 -6 -16 -10
-5 -27 14 -22 81 -29 93 -10 9 14 35 12 35 -2 0 -18 -65 -58 -94 -58 -15 0
-35 -13 -54 -34 -16 -19 -39 -37 -51 -41 -11 -3 -21 -14 -21 -24 0 -14 6 -17
30 -13 29 4 41 -10 20 -23 -17 -10 -70 5 -70 20 0 25 -51 55 -92 55 -22 0 -48
5 -58 10 -13 7 -27 7 -44 -1 -20 -10 -30 -9 -51 5 -14 9 -25 23 -25 31 0 8 -7
15 -16 15 -9 0 -14 7 -12 17 2 10 25 23 58 35 30 10 63 28 74 40 11 15 27 22
42 20 15 -2 28 4 36 17 7 12 24 21 38 22 27 0 72 16 55 19 -5 1 1 6 15 10 47
15 51 13 44 -25z m14049 28 c3 -5 1 -17 -4 -28 -4 -11 -8 -15 -8 -8 -1 6 -4
18 -7 27 -6 16 11 23 19 9z m-13363 -53 c0 -4 19 -15 42 -25 l42 -16 -44 -25
c-51 -29 -65 -26 -73 14 -5 23 -13 31 -38 36 l-32 6 28 24 c26 23 30 23 52 9
12 -8 23 -19 23 -23z m184 5 c-4 -8 -17 -15 -31 -15 -22 0 -24 2 -13 15 7 8
21 15 31 15 12 0 16 -5 13 -15z m10623 9 c-3 -3 -12 -4 -19 -1 -8 3 -5 6 6 6
11 1 17 -2 13 -5z m-761 -29 c-4 -11 1 -15 19 -15 14 0 25 -4 25 -9 0 -11 -25
-21 -53 -21 -15 0 -18 -3 -10 -8 20 -12 -6 -59 -42 -77 -27 -13 -31 -13 -42 2
-11 14 -10 20 5 33 10 9 24 19 32 22 11 3 10 7 -7 16 -29 16 -70 0 -85 -33
-18 -39 -26 -29 -15 18 10 46 31 61 102 77 55 13 78 11 71 -5z m897 -21 c-2
-7 -11 -10 -19 -7 -17 6 -18 15 -2 31 14 14 29 -3 21 -24z m-813 16 c0 -5 -7
-10 -16 -10 -8 0 -12 5 -9 10 3 6 10 10 16 10 5 0 9 -4 9 -10z m901 -33 c-7
-7 -12 -5 -17 7 -4 11 -1 21 7 27 17 11 26 -18 10 -34z m-9063 21 c-3 -7 -15
-15 -28 -16 -21 -3 -22 -2 -11 12 16 19 44 21 39 4z m7712 4 c0 -5 -13 -7 -30
-4 -16 2 -30 6 -30 8 0 2 14 4 30 4 17 0 30 -4 30 -8z m3005 -22 c-5 -8 -11
-8 -17 -2 -6 6 -7 16 -3 22 5 8 11 8 17 2 6 -6 7 -16 3 -22z m-1935 -25 c0
-41 -2 -45 -25 -45 -20 0 -25 -5 -25 -26 0 -23 3 -25 43 -22 39 3 42 5 40 31
-2 26 0 27 38 25 21 -2 39 -4 39 -6 0 -9 -31 -33 -38 -28 -4 2 -9 -6 -10 -20
-2 -31 1 -30 49 8 24 19 38 37 34 46 -4 11 0 13 17 9 12 -4 27 -2 34 4 16 13
27 -5 19 -30 -4 -13 -12 -17 -26 -14 -12 4 -25 0 -30 -8 -11 -18 -11 -70 -1
-87 11 -16 42 -5 42 15 0 10 6 12 23 8 29 -9 67 -33 67 -44 0 -16 -44 -29 -62
-17 -29 18 -43 -7 -41 -74 0 -33 -1 -60 -4 -60 -2 0 -12 7 -20 16 -15 14 -19
13 -49 -20 -18 -20 -41 -49 -50 -66 -10 -16 -24 -30 -31 -30 -8 0 -18 -12 -23
-26 -13 -33 -13 -34 5 -34 19 0 19 -17 1 -52 -10 -18 -11 -30 -4 -34 6 -4 6
-10 0 -16 -13 -13 -61 21 -55 39 6 18 -34 53 -62 53 -20 0 -25 -5 -25 -24 0
-14 -4 -27 -10 -31 -19 -11 2 -37 25 -31 22 6 23 4 12 -24 -13 -35 -40 -36
-45 -2 -4 28 -26 28 -46 0 -19 -27 -21 -58 -3 -58 9 0 13 -13 12 -38 -1 -47
-10 -62 -39 -62 -13 0 -29 -7 -36 -15 -11 -13 -8 -15 15 -15 25 0 27 -3 23
-31 -5 -31 -4 -31 30 -25 38 6 72 31 72 53 0 8 -6 13 -12 12 -28 -3 -38 2 -38
20 0 24 27 35 46 18 38 -31 44 -40 44 -59 0 -33 23 -15 27 22 2 19 8 39 13 44
6 6 10 21 10 34 0 21 2 22 15 12 8 -7 15 -21 15 -31 0 -11 5 -19 10 -19 6 0
10 9 10 20 0 11 5 20 10 20 20 0 9 -32 -20 -57 -16 -13 -30 -31 -30 -38 0 -7
-7 -18 -15 -25 -8 -7 -15 -25 -15 -39 0 -15 -11 -42 -25 -61 -30 -40 -31 -50
-7 -50 10 0 26 14 36 31 23 39 63 38 58 -2 -4 -31 30 -46 49 -22 23 26 49 35
65 22 13 -10 17 -10 25 2 5 8 9 19 9 26 0 15 78 98 85 91 10 -10 15 -87 5 -93
-5 -3 -11 -1 -15 5 -9 15 -55 12 -55 -3 0 -8 16 -22 35 -33 19 -10 35 -20 35
-22 0 -2 -10 -12 -22 -22 -22 -18 -23 -18 -28 0 -3 13 -9 17 -18 12 -17 -11
13 -72 36 -72 9 -1 1 -8 -18 -16 -19 -8 -44 -14 -56 -12 -26 3 -54 -18 -54
-43 0 -32 -35 -42 -93 -28 -71 17 -82 28 -63 64 16 31 13 45 -9 45 -20 0 -30
-21 -14 -31 11 -6 11 -11 1 -21 -6 -6 -12 -20 -12 -30 0 -12 -8 -18 -24 -18
-14 0 -31 -9 -40 -21 -13 -20 -18 -21 -45 -10 -21 9 -35 10 -49 2 -38 -20 -70
-13 -86 18 -16 29 -51 47 -62 29 -3 -5 -3 -19 0 -31 7 -29 -3 -44 -34 -48 -22
-4 -25 -9 -24 -44 0 -22 4 -55 9 -72 l8 -33 -67 0 -66 0 0 29 c0 41 9 61 29
61 10 0 30 13 45 29 23 24 26 32 17 49 -6 12 -11 29 -11 40 0 24 -66 77 -108
86 -17 4 -42 20 -54 35 -13 15 -31 30 -40 33 -8 4 -24 33 -33 65 -10 32 -23
64 -28 71 -6 8 -6 12 1 12 6 0 13 14 17 31 4 17 21 44 39 60 29 26 29 28 9 29
-29 0 -35 13 -22 47 9 24 7 30 -10 44 -12 10 -21 22 -21 28 0 18 29 12 47 -9
10 -11 25 -20 35 -20 11 0 18 -8 18 -20 0 -11 7 -20 15 -20 9 0 15 9 15 25 0
14 10 45 22 68 22 41 24 48 27 76 1 9 9 11 24 8 29 -8 52 6 44 27 -6 14 -1 22
37 53 8 7 18 19 23 26 4 7 34 30 66 50 31 21 57 42 57 46 0 4 12 14 27 22 45
23 63 42 63 66 0 13 4 23 8 23 5 0 34 24 65 53 40 37 57 60 59 82 2 19 9 30
18 30 8 0 16 10 18 22 3 21 36 53 54 53 5 0 8 -20 8 -45z m-1120 14 c0 -5 -4
-9 -10 -9 -5 0 -10 7 -10 16 0 8 5 12 10 9 6 -3 10 -10 10 -16z m649 5 c10
-10 -13 -18 -47 -17 -20 1 -43 -3 -49 -9 -10 -8 -13 -6 -13 4 0 21 40 38 75
31 17 -3 32 -7 34 -9z m2539 -18 c3 -20 -3 -32 -17 -43 -12 -8 -21 -21 -21
-29 0 -8 -4 -14 -8 -14 -18 0 -21 13 -7 33 9 12 11 27 6 41 -11 30 -2 48 23
44 15 -2 22 -11 24 -32z m-10618 14 c11 -7 6 -10 -20 -10 -26 0 -31 3 -20 10
8 5 17 10 20 10 3 0 12 -5 20 -10z m99 -20 c17 0 71 -32 71 -42 0 -16 -30 -7
-73 22 -25 17 -53 30 -63 31 -17 0 -17 1 1 9 13 5 26 3 36 -6 8 -8 21 -14 28
-14z m8371 20 c0 -5 -5 -10 -11 -10 -5 0 -7 5 -4 10 3 6 8 10 11 10 2 0 4 -4
4 -10z m-9523 -6 c-3 -3 -12 -4 -19 -1 -8 3 -5 6 6 6 11 1 17 -2 13 -5z m1366
-21 c35 -5 37 -7 37 -44 0 -39 -7 -47 -25 -30 -8 7 -83 33 -134 48 -11 3 -10
8 5 24 14 16 26 19 49 15 16 -4 47 -9 68 -13z m8074 -15 c-3 -8 -6 -5 -6 6 -1
11 2 17 5 13 3 -3 4 -12 1 -19z m-886 -1 c-1 -4 -1 -14 -1 -22 0 -8 -7 -15
-15 -15 -15 0 -21 31 -8 44 8 8 25 3 24 -7z m1809 -22 c-8 -9 -10 -29 -7 -50
6 -38 5 -40 -24 -25 -26 15 -24 40 7 73 26 29 48 30 24 2z m1020 0 c0 -8 -4
-15 -10 -15 -5 0 -10 7 -10 15 0 8 5 15 10 15 6 0 10 -7 10 -15z m974 -35 c9
0 21 -11 26 -24 5 -13 15 -26 22 -29 7 -3 3 -6 -9 -6 -13 -1 -23 3 -23 8 0 5
-9 11 -20 14 -13 3 -20 0 -20 -9 0 -8 -4 -14 -9 -14 -14 0 -32 26 -23 35 4 5
2 5 -5 1 -18 -10 -45 34 -31 51 9 11 16 9 43 -7 18 -11 40 -20 49 -20z m-944
10 c0 -5 -2 -10 -4 -10 -3 0 -8 5 -11 10 -3 6 -1 10 4 10 6 0 11 -4 11 -10z
m-10530 -27 c0 -13 -3 -13 -15 -3 -8 7 -12 16 -9 21 8 13 24 1 24 -18z m7715
-3 c0 -22 -29 -18 -33 3 -3 14 1 18 15 15 10 -2 18 -10 18 -18z m2318 -13 c-3
-5 -9 -3 -14 4 -4 7 -5 17 -2 22 3 5 9 3 14 -4 4 -7 5 -17 2 -22z m1206 14
c26 -20 25 -54 -2 -59 -12 -3 -17 3 -17 21 0 17 -7 26 -21 30 -12 3 -18 10
-14 16 9 16 27 13 54 -8z m-14329 -1 c0 -5 -9 -10 -20 -10 -11 0 -20 5 -20 10
0 6 9 10 20 10 11 0 20 -4 20 -10z m10710 1 c0 -6 -5 -13 -10 -16 -8 -5 -7
-11 1 -21 9 -11 15 -11 25 -3 8 6 14 9 14 5 0 -8 -71 -71 -79 -71 -10 0 -11
64 -1 70 6 3 10 15 10 26 0 12 7 19 20 19 11 0 20 -4 20 -9z m458 -19 c2 -7
-3 -12 -12 -12 -9 0 -16 7 -16 16 0 17 22 14 28 -4z m3204 -4 c-7 -7 -12 -8
-12 -2 0 14 12 26 19 19 2 -3 -1 -11 -7 -17z m-11552 2 c0 -13 -11 -13 -30 0
-12 8 -11 10 8 10 12 0 22 -4 22 -10z m8095 -21 c-8 -12 -35 -12 -35 0 0 11
22 20 33 14 4 -2 5 -9 2 -14z m126 -15 c12 -11 15 -26 12 -62 -8 -73 -44 -118
-56 -71 -4 15 -11 20 -22 15 -9 -3 -32 1 -51 9 -26 11 -34 11 -34 1 0 -17 21
-36 39 -36 8 0 26 -10 39 -22 17 -16 26 -19 29 -10 6 17 28 15 43 -3 16 -19 5
-34 -12 -17 -17 17 -28 15 -28 -7 0 -10 -7 -24 -15 -31 -33 -27 -1 -60 58 -60
12 0 29 -4 37 -10 12 -7 11 -12 -5 -30 -18 -20 -18 -22 -2 -31 9 -6 17 -16 17
-24 0 -10 -14 -5 -45 16 -26 17 -52 28 -61 25 -9 -3 -24 -1 -34 4 -26 14 -36
-6 -15 -30 16 -18 15 -19 -19 -25 -19 -4 -53 -5 -73 -1 -21 3 -69 9 -107 14
-38 6 -72 16 -77 23 -5 8 -9 60 -9 117 0 99 1 103 20 97 35 -11 63 4 57 31 -2
15 0 24 8 24 6 0 20 9 30 20 10 11 23 20 29 20 6 0 22 9 36 20 26 21 94 27
105 10 12 -20 25 -9 25 21 0 30 1 31 32 25 17 -3 39 -13 49 -22z m-7876 -1
c18 8 49 -33 35 -47 -15 -15 -80 22 -80 46 0 17 3 18 15 8 8 -7 21 -10 30 -7z
m7971 -78 c-13 -11 -26 -27 -30 -35 -3 -8 -3 8 0 35 3 28 13 58 22 68 16 18
17 17 24 -15 6 -27 3 -36 -16 -53z m6872 22 c3 -12 -5 -16 -38 -15 -47 0 -49
0 -52 -33 -3 -21 2 -25 37 -29 49 -6 56 -33 10 -38 -48 -6 -55 -18 -55 -93 0
-71 -10 -90 -36 -68 -24 20 -16 249 10 277 30 34 118 33 124 -1z m-17588 8
c-7 -8 -24 -15 -39 -15 l-26 1 30 14 c40 18 50 18 35 0z m6115 -17 c3 -18 5
-87 3 -153 -3 -112 -4 -120 -23 -120 -19 0 -20 8 -23 140 -1 76 0 145 2 152
10 25 35 13 41 -19z m1565 -56 l5 -83 40 40 c38 40 68 51 80 31 4 -6 -12 -29
-35 -52 l-41 -42 41 -41 c41 -42 52 -75 24 -75 -9 0 -37 21 -62 48 l-47 47 -3
-43 c-3 -45 -26 -67 -43 -41 -10 16 -12 259 -3 284 4 9 14 15 23 13 13 -3 17
-20 21 -86z m9720 78 c0 -5 1 -13 3 -17 1 -5 -15 -8 -37 -9 -39 -1 -56 -15
-56 -46 0 -13 10 -18 42 -20 31 -2 44 -8 46 -20 3 -14 -3 -18 -26 -18 -58 0
-62 -6 -62 -86 0 -59 -3 -76 -16 -81 -28 -11 -35 19 -32 143 4 148 13 164 90
164 26 0 48 -4 48 -10z m-4040 -10 c0 -5 -5 -10 -11 -10 -5 0 -7 5 -4 10 3 6
8 10 11 10 2 0 4 -4 4 -10z m-7361 -14 c18 -21 -7 -34 -69 -38 -54 -3 -55 -4
-55 -33 0 -29 2 -30 55 -35 42 -4 56 -9 58 -22 2 -10 -2 -19 -10 -19 -7 -1
-26 -3 -43 -4 -16 -1 -38 -3 -47 -4 -13 -1 -18 -10 -18 -35 0 -40 11 -46 86
-46 39 0 54 -4 54 -14 0 -8 -7 -17 -16 -20 -28 -11 -150 -6 -162 6 -8 8 -12
52 -12 133 0 81 4 125 12 133 17 17 152 16 167 -2z m870 5 c8 -5 26 -37 41
-72 14 -34 31 -64 36 -66 5 -2 21 27 35 64 29 74 49 94 77 77 13 -9 20 -36 29
-125 15 -150 16 -149 -3 -156 -31 -12 -44 25 -44 121 -1 80 -2 89 -15 72 -7
-10 -22 -40 -31 -67 -29 -80 -67 -77 -99 9 -35 90 -44 84 -47 -30 -3 -95 -4
-103 -23 -103 -19 0 -20 6 -17 130 3 147 15 175 61 146z m4068 -23 c-3 -7 -5
-2 -5 12 0 14 2 19 5 13 2 -7 2 -19 0 -25z m6009 8 c3 -14 4 -70 2 -124 -4
-122 -18 -145 -82 -140 -29 2 -42 8 -44 21 -3 13 3 17 25 17 48 0 53 14 53
137 0 106 1 113 20 113 12 0 22 -9 26 -24z m954 9 c38 -20 49 -59 27 -97 -15
-27 -15 -30 3 -48 20 -20 25 -54 14 -85 -10 -26 -60 -45 -119 -45 -94 0 -95 1
-95 145 0 108 2 125 18 134 26 16 119 13 152 -4z m-5117 -45 c-3 -11 -9 -17
-14 -15 -10 7 -1 35 11 35 5 0 6 -9 3 -20z m-6426 -32 c46 -42 38 -149 -12
-182 -13 -9 -43 -16 -66 -16 -33 0 -47 6 -75 34 -27 27 -34 42 -34 74 0 47 34
103 70 113 37 11 92 0 117 -23z m263 7 c11 -12 15 -39 15 -108 0 -85 -1 -92
-20 -92 -18 0 -21 8 -25 83 -6 98 -26 121 -81 92 -16 -9 -19 -22 -19 -90 0
-81 -6 -95 -34 -84 -14 5 -16 21 -14 98 l3 91 35 18 c41 21 115 16 140 -8z
m936 4 c26 -22 15 -31 -29 -25 -33 5 -47 3 -56 -8 -17 -20 -7 -33 29 -41 40
-9 80 -42 80 -68 0 -37 -38 -67 -87 -67 -49 0 -83 14 -83 34 0 10 16 13 56 12
35 -1 59 3 61 10 6 17 -25 44 -50 44 -78 0 -90 94 -17 123 21 9 79 0 96 -14z
m7919 11 c-3 -5 -12 -10 -20 -10 -8 0 -17 5 -20 10 -4 6 5 10 20 10 15 0 24
-4 20 -10z m1702 -15 c24 -16 39 -55 30 -80 -6 -15 -22 -20 -99 -30 -84 -11
-53 -61 32 -53 29 3 53 1 57 -5 11 -18 -29 -37 -78 -37 -38 0 -53 6 -78 29
-26 24 -31 37 -31 75 0 25 6 57 12 72 23 51 99 65 155 29z m962 14 c31 -11 61
-52 61 -83 0 -21 -32 -36 -77 -36 -22 0 -48 -6 -58 -14 -17 -12 -17 -16 -6
-30 11 -13 28 -16 68 -15 61 3 70 -2 48 -25 -11 -10 -34 -16 -66 -16 -39 0
-55 5 -80 28 -27 24 -31 35 -32 77 -1 62 15 92 56 110 39 17 46 18 86 4z m501
-25 c21 -21 25 -34 25 -85 0 -56 -3 -63 -30 -85 -60 -48 -149 -26 -176 43 -44
116 93 213 181 127z m204 26 c14 -5 26 -17 26 -26 0 -13 -7 -15 -35 -10 -41 8
-84 -9 -66 -27 6 -6 31 -19 54 -28 23 -9 49 -28 57 -42 13 -24 13 -28 -6 -54
-16 -22 -31 -29 -64 -31 -66 -5 -90 4 -90 34 0 21 3 23 19 14 11 -5 36 -10 55
-10 28 0 36 4 36 18 0 24 -19 42 -45 42 -37 0 -65 28 -65 64 0 35 12 51 45 59
34 8 53 7 79 -3z m-11634 -90 l5 -85 45 0 45 0 3 88 c3 79 5 87 22 87 19 0 20
-7 20 -98 0 -96 -1 -99 -25 -110 -14 -7 -48 -12 -75 -12 -41 0 -52 4 -69 26
-18 22 -21 41 -21 111 0 82 1 84 23 81 20 -3 22 -9 27 -88z m11200 71 c0 -15
-29 -63 -50 -81 -14 -12 -50 -64 -50 -71 0 -5 22 -9 48 -9 54 0 67 -7 51 -27
-17 -20 -158 -18 -165 2 -6 16 24 67 70 119 14 16 26 33 26 38 0 4 -20 8 -44
8 -45 0 -63 11 -51 30 3 6 42 10 86 10 70 0 79 -2 79 -19z m-5557 2 c-7 -2
-19 -2 -25 0 -7 3 -2 5 12 5 14 0 19 -2 13 -5z m627 -8 c10 -13 10 -19 -2 -33
-9 -9 -13 -23 -11 -30 4 -10 -2 -13 -18 -10 -21 3 -24 9 -26 46 -3 38 -1 42
21 42 13 0 29 -7 36 -15z m-13905 -36 c0 -8 -8 -15 -17 -17 -18 -4 -43 32 -33
49 9 13 50 -13 50 -32z m14085 31 c0 -5 -4 -10 -10 -10 -5 0 -10 5 -10 10 0 6
5 10 10 10 6 0 10 -4 10 -10z m2137 -11 c23 -7 35 -21 47 -52 21 -56 21 -57
-14 -57 -38 0 -90 -26 -90 -45 0 -20 19 -29 34 -16 9 7 16 7 24 -1 6 -6 32
-11 57 -10 51 0 54 -7 29 -58 -13 -26 -14 -37 -5 -51 17 -28 14 -140 -5 -167
-9 -14 -11 -22 -4 -22 16 0 32 18 64 69 21 33 30 40 37 30 6 -9 4 -15 -6 -17
-8 -2 -15 -10 -15 -19 0 -19 -31 -63 -89 -130 -123 -138 -211 -268 -273 -400
-22 -46 -44 -83 -51 -80 -32 10 30 367 64 367 18 0 8 27 -19 53 -34 32 -37 33
-90 7 -22 -11 -45 -20 -50 -20 -24 0 -70 -34 -118 -86 -53 -57 -74 -62 -74
-18 0 19 -8 28 -35 40 -23 9 -33 19 -29 28 3 8 -3 19 -16 26 -31 17 -7 43 31
35 36 -8 50 16 47 87 -1 37 -2 43 -5 20 -6 -47 -55 -70 -113 -53 -49 15 -56
11 -64 -34 -7 -36 -35 -50 -37 -17 -1 9 -3 49 -5 87 -6 104 -3 111 53 119 149
21 143 22 155 -11 l11 -30 23 26 c20 23 30 26 91 27 37 0 80 4 95 8 14 4 35 3
45 -3 17 -8 19 -18 15 -69 -4 -51 -1 -63 17 -81 11 -11 27 -21 35 -21 22 0 46
29 46 56 0 30 3 30 45 1 26 -18 43 -22 72 -18 l38 6 -47 3 c-27 2 -48 7 -48
13 0 5 -5 9 -10 9 -14 0 -40 26 -69 68 -20 28 -24 48 -25 118 -1 87 1 99 19
99 33 1 95 18 95 26 0 14 -62 49 -88 49 -21 0 -22 2 -9 28 7 15 12 35 10 44
-7 27 38 44 75 29 24 -10 36 -9 63 3 19 8 34 15 35 15 1 1 15 -4 31 -10z
m-4087 -9 c0 -5 -7 -10 -15 -10 -8 0 -15 5 -15 10 0 6 7 10 15 10 8 0 15 -4
15 -10z m280 -15 c0 -18 -5 -25 -20 -25 -20 0 -28 28 -13 43 15 16 33 6 33
-18z m-7021 -15 c24 -17 52 -30 61 -30 35 0 43 -26 37 -113 -9 -128 -11 -131
-88 -128 -35 1 -75 -2 -89 -7 -21 -8 -33 -3 -82 35 -32 24 -58 46 -58 48 0 2
13 34 28 72 31 76 95 153 127 153 11 0 40 -14 64 -30z m7806 10 c4 -13 19 -21
43 -25 56 -10 62 -13 56 -29 -7 -18 55 -86 78 -86 9 0 19 7 22 16 5 14 10 13
35 -8 15 -12 37 -29 47 -36 16 -11 11 -12 -38 -7 l-57 5 15 -36 c9 -20 25 -50
37 -66 l21 -28 -27 -56 c-20 -39 -25 -60 -18 -72 6 -10 6 -23 0 -34 -13 -25 4
-54 43 -74 29 -15 32 -15 44 0 6 10 15 33 19 54 4 20 13 45 20 56 10 14 11 24
4 38 -10 19 -11 19 -24 1 -13 -17 -15 -17 -31 -1 -23 23 -12 53 15 38 26 -13
31 -13 31 4 0 27 18 26 67 -2 39 -23 49 -35 54 -63 3 -19 2 -44 -2 -56 -10
-27 4 -39 59 -48 53 -9 59 -35 8 -35 -42 0 -53 -14 -28 -36 24 -20 18 -64 -9
-64 -23 0 -32 16 -31 55 1 29 -2 33 -30 39 -38 8 -40 6 -44 -43 -3 -36 1 -43
34 -71 37 -30 37 -30 10 -30 -38 0 -42 -15 -18 -65 26 -55 47 -67 88 -56 23 7
34 6 43 -5 9 -11 7 -14 -16 -14 -18 0 -25 -4 -22 -12 3 -7 8 -21 12 -30 4 -11
3 -18 -4 -18 -6 0 -11 3 -11 8 0 12 -56 33 -73 26 -9 -3 -29 4 -45 16 -28 21
-52 21 -52 -1 0 -16 59 -62 98 -76 20 -7 53 -13 73 -13 41 0 73 -25 45 -36 -9
-3 -16 -12 -16 -20 0 -19 -64 -18 -80 1 -16 19 -34 19 -50 -1 -8 -8 -25 -14
-39 -12 -20 2 -26 9 -26 28 0 14 -6 25 -12 24 -7 -1 -20 -2 -28 -3 -9 0 -20
-13 -25 -27 -13 -34 -63 -31 -68 5 -3 19 -8 22 -30 18 -15 -3 -35 -1 -44 4
-15 8 -18 5 -18 -21 0 -27 -3 -30 -30 -30 -24 0 -31 5 -36 28 -15 71 -20 77
-67 92 -25 8 -49 18 -53 23 -4 4 -17 7 -29 7 -39 0 -85 30 -100 66 -10 24 -20
34 -36 34 -11 0 -40 13 -64 29 -48 33 -71 28 -61 -13 3 -14 11 -26 16 -26 6 0
10 -7 10 -15 0 -17 -16 -20 -25 -5 -3 5 -20 7 -37 3 l-31 -6 7 51 7 51 -33 -3
c-18 -2 -25 -2 -16 1 9 2 24 15 32 29 21 31 40 30 72 -1 31 -31 35 -31 63 -1
16 17 20 30 16 49 -5 20 -2 28 15 37 18 10 21 19 18 62 -3 59 -25 81 -58 60
-18 -11 -20 -10 -20 9 0 12 -8 28 -17 35 -24 17 -4 40 23 26 11 -5 52 -13 92
-16 71 -7 72 -7 72 17 0 13 -11 34 -25 47 -32 30 -34 55 -2 45 12 -4 37 -7 55
-7 17 0 32 -4 32 -10 0 -6 3 -9 6 -6 3 4 -2 17 -10 30 -15 23 -15 27 0 56 8
18 20 32 25 32 21 0 7 30 -17 36 -28 7 -14 24 15 18 23 -6 57 27 65 63 6 25 4
31 -13 36 -25 6 -27 29 -5 51 21 21 31 20 39 -4z m800 -20 c25 -26 27 -33 17
-55 -7 -14 -12 -35 -12 -45 0 -14 -7 -20 -21 -20 -17 0 -20 4 -15 23 3 14 -2
35 -14 54 -19 32 -17 73 4 73 7 0 25 -13 41 -30z m305 5 c0 -8 -2 -15 -4 -15
-2 0 -6 7 -10 15 -3 8 -1 15 4 15 6 0 10 -7 10 -15z m-1723 -17 c-3 -8 -6 -5
-6 6 -1 11 2 17 5 13 3 -3 4 -12 1 -19z m3371 -75 l3 -91 -28 -6 c-22 -4 -185
-2 -270 3 -6 1 -14 9 -17 19 -8 25 -49 25 -90 1 -23 -13 -48 -19 -73 -17 -37
3 -38 4 -36 41 2 21 10 51 20 68 17 28 20 29 82 27 35 -1 69 -8 76 -15 10 -10
16 -8 30 7 15 17 31 20 101 20 66 0 90 4 116 20 18 11 44 19 58 18 24 -3 25
-5 28 -95z m-3781 45 c-3 -7 -5 -2 -5 12 0 14 2 19 5 13 2 -7 2 -19 0 -25z
m-8563 -24 c4 -10 1 -14 -6 -12 -15 5 -23 28 -10 28 5 0 13 -7 16 -16z m8316
10 c0 -13 -21 -44 -30 -44 -14 0 -12 24 2 38 13 13 28 16 28 6z m1645 -4 c3
-5 15 -10 25 -10 27 0 74 -59 60 -75 -8 -10 -8 -15 0 -20 8 -5 5 -11 -7 -21
-13 -9 -14 -13 -4 -14 14 0 40 -28 41 -42 0 -5 -11 -8 -25 -8 -18 0 -23 -4
-19 -15 4 -8 13 -15 21 -15 8 0 11 -4 8 -10 -17 -27 -91 4 -79 33 3 10 -2 20
-15 26 -36 19 -73 62 -67 78 4 11 14 13 36 8 35 -8 35 -8 15 38 -8 20 -15 41
-15 47 0 13 17 13 25 0z m2955 -5 c9 -11 16 -13 24 -5 41 41 88 -36 52 -85
-13 -18 -15 -18 -39 -2 -23 15 -26 15 -31 1 -5 -12 -14 -15 -39 -10 -29 5 -35
3 -45 -19 -7 -14 -12 -32 -12 -40 0 -8 -4 -15 -9 -15 -5 0 -11 -10 -13 -22 -2
-12 -9 -24 -17 -26 -11 -4 -12 2 -7 29 5 19 10 48 12 66 5 37 34 97 34 71 0
-10 5 -18 10 -18 6 0 10 17 10 38 0 21 3 42 7 45 12 13 50 7 63 -8z m-2425 -5
c3 -5 -1 -10 -9 -10 -8 0 -18 5 -21 10 -3 6 1 10 9 10 8 0 18 -4 21 -10z
m-2098 -22 c-3 -8 -6 -5 -6 6 -1 11 2 17 5 13 3 -3 4 -12 1 -19z m643 12 c0
-5 -2 -10 -4 -10 -3 0 -8 5 -11 10 -3 6 -1 10 4 10 6 0 11 -4 11 -10z m1185 0
c3 -5 15 -10 26 -10 13 0 19 -7 19 -24 0 -13 8 -38 17 -54 15 -27 16 -35 4
-67 -7 -20 -10 -39 -7 -43 4 -3 32 -11 64 -17 39 -8 58 -17 60 -28 3 -12 -3
-17 -21 -17 -13 0 -27 3 -31 8 -4 4 -32 7 -63 7 -48 0 -58 4 -79 28 -28 33
-31 75 -8 119 16 31 12 78 -6 78 -6 0 -10 7 -10 15 0 17 25 20 35 5z m-1686
-72 c-2 -95 -28 -134 -57 -88 -7 11 -21 20 -32 20 -14 0 -21 10 -27 38 -11 55
-11 57 22 54 21 -2 37 3 50 17 34 38 45 27 44 -41z m236 43 c8 -14 -10 -22
-30 -15 -13 5 -14 8 -3 15 17 11 26 11 33 0z m1115 -11 c0 -5 -4 -10 -9 -10
-6 0 -13 5 -16 10 -3 6 1 10 9 10 9 0 16 -4 16 -10z m-840 -35 c16 -19 -3 -45
-33 -45 -26 0 -49 31 -35 47 14 18 53 16 68 -2z m-172 -13 c2 -7 -2 -10 -12
-6 -9 3 -16 11 -16 16 0 13 23 5 28 -10z m-1428 -32 c0 -15 -33 -50 -47 -50
-16 0 -16 2 -3 34 9 25 50 38 50 16z m830 -5 c0 -8 -4 -15 -10 -15 -5 0 -10 7
-10 15 0 8 5 15 10 15 6 0 10 -7 10 -15z m463 8 c-7 -2 -13 -13 -13 -23 0 -24
-22 -31 -36 -11 -18 24 -5 41 30 40 17 0 25 -3 19 -6z m1847 -70 c0 -7 -7 -13
-15 -13 -15 0 -21 31 -8 43 8 8 23 -12 23 -30z m-650 -3 c0 -5 -4 -10 -10 -10
-5 0 -10 5 -10 10 0 6 5 10 10 10 6 0 10 -4 10 -10z m-1680 -31 c0 -4 -7 -6
-15 -3 -8 4 -15 10 -15 15 0 4 7 6 15 3 8 -4 15 -10 15 -15z m230 7 c0 -8 -4
-17 -9 -21 -12 -7 -24 12 -16 25 9 15 25 12 25 -4z m-6631 -68 c-1 -35 -5 -67
-9 -73 -4 -5 -11 -28 -14 -50 -11 -61 -70 -169 -116 -212 -41 -37 -41 -38 -27
-71 15 -37 24 -32 47 28 21 56 28 56 37 -1 4 -29 14 -54 21 -57 11 -3 11 0 1
15 -8 13 -9 30 -4 49 9 29 9 29 14 -11 5 -30 8 -36 14 -22 11 27 9 77 -4 77
-5 0 -7 5 -4 10 4 6 17 3 35 -10 15 -11 31 -20 35 -20 14 0 55 -55 55 -72 0
-28 -25 -21 -37 10 l-11 27 -1 -37 c-1 -28 -9 -45 -36 -71 -19 -18 -44 -38
-57 -44 -94 -47 -159 -73 -178 -73 l-22 0 22 36 c28 44 40 96 28 118 -7 12 -5
24 6 41 l16 25 -45 -7 c-44 -6 -81 9 -70 28 3 4 0 17 -6 28 -11 16 -8 24 21
58 19 22 41 37 51 35 9 -2 20 2 24 8 3 5 0 10 -8 10 -21 0 -48 35 -41 54 3 9
14 16 24 16 33 0 42 26 39 111 -3 57 0 83 8 86 12 4 17 -7 29 -72 l7 -40 9 40
c9 43 10 43 86 46 27 1 32 5 32 25 0 15 6 24 16 24 13 0 15 -11 13 -62z m8607
35 c-10 -10 -19 5 -10 18 6 11 8 11 12 0 2 -7 1 -15 -2 -18z m-3126 7 c0 -5
-4 -10 -10 -10 -5 0 -10 5 -10 10 0 6 5 10 10 10 6 0 10 -4 10 -10z m960 -35
c0 -44 0 -44 -20 -28 -25 21 -26 42 -2 59 9 7 18 14 20 14 1 0 2 -20 2 -45z
m-6788 15 c13 0 28 -38 22 -54 -16 -41 -104 0 -104 48 0 22 2 23 38 15 20 -5
40 -9 44 -9z m5786 -4 c5 -23 -12 -40 -32 -33 -13 5 -14 11 -4 32 13 28 31 28
36 1z m2922 -2 c0 -2 -7 -4 -15 -4 -8 0 -15 4 -15 10 0 5 7 7 15 4 8 -4 15 -8
15 -10z m40 -24 c0 -5 -2 -10 -4 -10 -3 0 -8 5 -11 10 -3 6 -1 10 4 10 6 0 11
-4 11 -10z m-3056 -36 c9 -3 16 -11 16 -17 0 -8 -3 -8 -11 0 -6 6 -18 9 -25 6
-8 -3 -14 0 -14 6 0 12 11 14 34 5z m1093 -51 c-3 -10 -5 -2 -5 17 0 19 2 27
5 18 2 -10 2 -26 0 -35z m578 13 c-1 -14 -8 -32 -15 -41 -8 -9 -13 -32 -12
-52 2 -30 -1 -36 -28 -46 -35 -13 -41 -32 -7 -24 81 21 74 23 79 -28 2 -25 1
-48 -1 -51 -2 -2 -24 -4 -47 -4 -33 0 -46 5 -54 20 -10 18 -13 19 -38 7 -15
-8 -43 -14 -62 -15 -19 -2 -40 -9 -46 -17 -16 -21 -22 -19 -44 18 -24 38 -26
83 -5 91 22 8 18 44 -5 51 -28 9 -25 33 5 47 19 9 29 8 50 -6 31 -20 32 -30 4
-43 -22 -9 -22 -9 7 -39 l29 -30 43 43 c45 47 50 60 27 69 -8 4 -15 17 -15 31
0 22 3 24 24 19 13 -3 37 1 52 9 42 22 60 19 59 -9z m-7366 -2 c2 -1 -12 -23
-30 -48 -30 -43 -31 -47 -15 -59 15 -11 16 -17 5 -40 -7 -15 -16 -27 -21 -27
-4 0 -11 0 -15 0 -4 -1 -13 22 -19 50 -13 56 -4 117 18 131 11 8 66 3 77 -7z
m6856 -52 c-8 -39 -28 -46 -52 -20 -17 20 -17 20 12 44 35 27 50 19 40 -24z
m2365 -2 c-7 -4 -10 -12 -7 -17 3 -5 2 -15 -4 -23 -6 -11 -9 -5 -9 22 0 20 6
38 13 41 16 6 23 -13 7 -23z m-190 5 c0 -8 -7 -15 -15 -15 -16 0 -20 12 -8 23
11 12 23 8 23 -8z m-3249 -8 c-6 -42 -16 -67 -24 -64 -14 4 -15 60 -2 69 12 9
27 6 26 -5z m5788 -62 c7 -7 11 -21 7 -30 -6 -15 -9 -15 -38 2 -18 11 -35 27
-36 37 -3 16 0 18 25 12 15 -4 34 -13 42 -21z m-9469 -34 c0 -5 -12 -11 -27
-13 -22 -2 -29 -9 -31 -30 -3 -25 0 -28 28 -28 18 0 29 -4 25 -10 -3 -5 -17
-10 -31 -10 -23 0 -24 -3 -24 -65 0 -51 -3 -65 -15 -65 -22 0 -22 176 1 208
15 22 74 32 74 13z m4920 -5 c0 -21 -11 -25 -38 -15 -28 11 -20 29 14 29 14 0
24 -6 24 -14z m6100 5 c0 -5 -12 -11 -27 -13 -22 -2 -29 -9 -31 -30 -3 -25 0
-28 28 -28 18 0 29 -4 25 -10 -3 -5 -17 -10 -31 -10 -23 0 -24 -3 -24 -65 0
-51 -3 -65 -15 -65 -22 0 -22 176 1 208 15 22 74 32 74 13z m-5671 -27 c2 -10
10 -24 19 -30 11 -8 12 -13 4 -18 -21 -13 -13 -33 11 -29 15 3 32 -4 50 -21
16 -14 32 -26 38 -26 5 0 9 -3 9 -7 0 -5 -20 -9 -45 -11 -40 -2 -47 1 -56 22
-7 14 -17 22 -25 19 -18 -7 -69 33 -52 41 10 5 10 7 1 12 -18 8 -16 34 4 56
20 22 37 19 42 -8z m-6189 3 c0 -8 -12 -11 -38 -9 -52 5 -77 -23 -77 -88 0
-63 16 -80 76 -80 27 0 49 -4 49 -10 0 -16 -93 -12 -117 5 -26 18 -47 77 -39
110 3 13 18 37 32 54 22 26 33 31 70 31 29 0 44 -4 44 -13z m200 3 c0 -5 -22
-10 -50 -10 l-50 0 0 -35 c0 -32 2 -35 29 -35 16 0 38 -3 48 -7 13 -6 6 -9
-27 -13 -44 -5 -45 -6 -48 -42 l-3 -38 50 0 c28 0 51 -4 51 -10 0 -6 -28 -10
-65 -10 l-65 0 0 98 c0 54 3 102 7 105 10 11 123 8 123 -3z m205 -14 c26 -21
29 -29 29 -79 0 -77 -27 -107 -95 -107 -43 0 -51 4 -73 33 -40 52 -28 137 21
166 32 18 86 12 118 -13z m645 -45 c20 34 49 64 55 57 4 -4 -6 -26 -23 -49
l-31 -42 29 -43 c30 -42 37 -64 23 -64 -5 0 -21 19 -37 42 l-30 41 -37 -43
c-47 -55 -62 -46 -20 12 17 23 31 47 31 53 0 6 -11 27 -25 47 -39 57 -29 68
15 18 34 -38 42 -42 50 -29z m360 57 c0 -9 -15 -13 -42 -13 -37 0 -43 -3 -46
-22 -3 -18 5 -26 35 -40 54 -25 73 -43 73 -71 0 -14 -8 -31 -17 -38 -24 -18
-99 -18 -106 -1 -4 11 5 13 43 9 42 -4 49 -2 55 17 9 29 -6 45 -60 66 -40 15
-45 20 -45 49 0 18 5 37 12 44 16 16 98 16 98 0z m9610 -1 c0 -8 -12 -11 -38
-9 -52 5 -77 -23 -77 -88 0 -63 16 -80 76 -80 27 0 49 -4 49 -10 0 -16 -93
-12 -117 5 -26 18 -47 77 -39 110 3 13 18 37 32 54 22 26 33 31 70 31 29 0 44
-4 44 -13z m200 3 c0 -5 -22 -10 -50 -10 l-50 0 0 -35 c0 -32 2 -35 29 -35 16
0 38 -3 48 -7 13 -6 6 -9 -27 -13 -44 -5 -45 -6 -48 -42 l-3 -38 50 0 c28 0
51 -4 51 -10 0 -6 -28 -10 -65 -10 l-65 0 0 98 c0 54 3 102 7 105 10 11 123 8
123 -3z m205 -14 c26 -21 29 -29 29 -79 0 -77 -27 -107 -95 -107 -43 0 -51 4
-73 33 -40 52 -28 137 21 166 32 18 86 12 118 -13z m653 2 c21 -43 65 -179 59
-184 -10 -10 -27 6 -27 26 0 20 -19 30 -60 30 -31 0 -60 -22 -60 -46 0 -8 -4
-14 -10 -14 -15 0 -12 19 9 80 48 134 65 155 89 108z m-10467 -65 c12 -33 11
-63 -4 -93 -10 -20 -22 -26 -57 -30 -40 -4 -45 -8 -48 -32 -2 -16 -8 -28 -13
-28 -6 0 -9 41 -7 103 l3 102 40 5 c55 8 75 1 86 -27z m167 15 c12 -11 17 -94
6 -122 -4 -12 -20 -16 -55 -16 -43 0 -51 3 -61 25 -9 21 -8 28 7 45 10 11 30
20 44 20 14 0 32 4 40 9 24 15 -6 43 -43 41 -44 -3 -54 0 -32 9 23 9 76 2 94
-11z m177 2 c-2 -4 -16 -5 -30 -2 -35 6 -65 -23 -65 -63 0 -41 16 -55 62 -55
21 0 38 -4 38 -10 0 -5 -19 -10 -42 -10 -56 0 -78 21 -78 76 0 55 30 82 84 76
20 -2 34 -8 31 -12z m3809 -1 c-7 -12 -54 -12 -54 0 0 11 30 19 47 13 7 -2 10
-8 7 -13z m6637 -1 c13 -19 11 -141 -1 -133 -5 3 -10 33 -10 65 0 55 -2 60
-25 66 -39 10 -55 -11 -55 -72 0 -29 -4 -56 -10 -59 -6 -4 -10 16 -10 53 0 65
-13 86 -52 80 -21 -3 -23 -9 -26 -70 -4 -92 -22 -87 -22 6 0 86 -7 82 124 79
53 -1 82 -6 87 -15z m187 -57 c4 -65 -8 -81 -62 -81 -93 0 -89 81 4 92 17 2
25 9 25 23 0 16 -9 21 -40 26 l-40 5 35 5 c55 8 74 -10 78 -70z m158 65 c3 -8
-13 -38 -35 -67 l-41 -54 38 -3 c65 -6 61 -22 -6 -22 -75 0 -78 8 -22 78 43
53 41 60 -18 64 -17 0 -10 4 18 8 25 4 49 8 53 8 4 1 10 -4 13 -12z m369 -6
c17 -14 21 -140 5 -140 -5 0 -10 24 -10 53 0 66 -16 90 -55 85 -30 -3 -30 -4
-33 -70 -4 -92 -22 -86 -22 6 0 74 0 75 28 78 42 5 71 1 87 -12z m-12429 -7
c18 -24 17 -84 -2 -111 -21 -31 -85 -31 -114 0 -24 26 -26 75 -4 106 20 29 99
32 120 5z m1444 -2 c21 -39 13 -51 -34 -51 -47 0 -70 -17 -60 -44 4 -11 19
-16 50 -16 24 0 44 -4 44 -10 0 -19 -89 -11 -110 10 -23 23 -27 79 -8 110 18
28 103 29 118 1z m9576 2 c18 -24 17 -84 -2 -111 -21 -31 -85 -31 -114 0 -24
26 -26 75 -4 106 20 29 99 32 120 5z m1224 2 c20 -24 17 -90 -5 -115 -14 -16
-28 -20 -59 -18 -36 3 -44 8 -61 40 -19 35 -19 38 -2 72 16 34 19 36 66 36 31
0 53 -5 61 -15z m-4858 -25 c10 -17 28 -35 40 -40 22 -8 22 -9 -7 -11 -48 -2
-69 2 -87 18 -21 19 -24 49 -5 56 27 12 43 5 59 -23z m-762 -16 c0 -15 -6 -24
-15 -24 -10 0 -15 10 -15 30 0 22 4 28 15 24 8 -4 15 -17 15 -30z m-2760 1 c0
-8 -9 -15 -20 -15 -13 0 -18 5 -14 15 4 8 12 15 20 15 8 0 14 -7 14 -15z m174
0 c-4 -8 -12 -15 -20 -15 -8 0 -14 7 -14 15 0 8 9 15 20 15 13 0 18 -5 14 -15z
m-3491 -12 c-13 -2 -35 -2 -50 0 -16 2 -5 4 22 4 28 0 40 -2 28 -4z m4751 -19
c9 -3 16 -15 16 -25 0 -10 9 -28 19 -38 24 -24 10 -41 -32 -41 -34 0 -90 51
-85 77 2 9 14 20 28 24 35 10 36 10 54 3z m581 -14 c3 -5 1 -10 -4 -10 -6 0
-11 5 -11 10 0 6 2 10 4 10 3 0 8 -4 11 -10z m1134 -16 c1 -10 10 -27 19 -36
14 -17 13 -18 -15 -18 -42 0 -57 20 -42 54 14 30 32 30 38 0z m-8916 -21 c5
-3 -5 -20 -23 -38 -17 -18 -37 -50 -45 -71 -19 -57 -45 -57 -75 1 -13 26 -32
51 -42 56 -9 5 -15 16 -13 24 16 50 10 47 103 40 48 -4 91 -10 95 -12z m8775
-1 c2 -7 -3 -12 -12 -12 -9 0 -16 7 -16 16 0 17 22 14 28 -4z m-8691 -24 c-2
-12 -9 -24 -15 -26 -7 -2 -12 -15 -12 -28 0 -15 -6 -24 -15 -24 -20 0 -19 12
6 60 23 44 41 53 36 18z m5683 -6 c0 -5 -9 -28 -21 -52 -12 -24 -19 -55 -17
-71 4 -28 3 -29 -34 -29 -32 0 -39 4 -44 25 -7 30 14 67 60 107 30 27 56 36
56 20z m246 -39 c-11 -11 -17 4 -9 23 7 18 8 18 11 1 2 -10 1 -21 -2 -24z
m629 17 c3 -5 1 -10 -4 -10 -6 0 -11 5 -11 10 0 6 2 10 4 10 3 0 8 -4 11 -10z
m2237 -19 c13 -10 31 -20 41 -24 32 -12 17 -27 -27 -27 -39 0 -81 22 -124 65
-2 2 17 3 42 3 28 0 54 -6 68 -17z m-128 -6 c-4 -8 -14 -15 -24 -15 -10 0 -23
7 -30 15 -11 13 -7 15 23 15 28 0 35 -3 31 -15z m-2364 -9 c0 -25 -12 -46 -26
-46 -18 0 -19 46 -1 53 21 9 27 7 27 -7z m2705 -16 c3 -5 -1 -10 -10 -10 -9 0
-13 5 -10 10 3 6 8 10 10 10 2 0 7 -4 10 -10z m-3035 -10 c0 -5 -2 -10 -4 -10
-3 0 -8 5 -11 10 -3 6 -1 10 4 10 6 0 11 -4 11 -10z m1908 -12 c17 -5 32 -16
32 -24 0 -25 -28 -27 -56 -5 -34 26 -38 26 -52 -1 -10 -21 -11 -20 -11 15 -1
41 1 41 87 15z m1255 -15 c6 -16 16 -31 22 -35 5 -4 -9 -8 -32 -8 -30 0 -49 6
-63 20 -33 33 -26 50 20 50 34 0 42 -4 53 -27z m-3287 -28 c-3 -10 -19 -15
-42 -15 -31 0 -35 2 -24 15 7 8 21 15 31 15 10 0 21 5 25 12 10 16 18 -6 10
-27z m1570 -6 c4 -7 -2 -9 -17 -7 -13 2 -25 11 -27 21 -3 16 -1 17 17 8 11 -6
23 -16 27 -22z m1194 22 c0 -6 -5 -13 -10 -16 -15 -9 -43 3 -35 15 8 13 45 13
45 1z"/>
<path d="M820 7026 c0 -63 9 -72 47 -54 38 18 44 69 11 92 -44 31 -58 22 -58
-38z"/>
<path d="M987 7034 c-14 -14 -6 -24 19 -24 16 0 24 5 22 13 -5 14 -31 21 -41
11z"/>
<path d="M1424 7026 c-11 -28 0 -61 21 -61 16 0 20 7 20 35 0 25 -5 36 -18 38
-9 2 -20 -3 -23 -12z"/>
<path d="M1564 7026 c-11 -28 0 -61 21 -61 16 0 20 7 20 35 0 25 -5 36 -18 38
-9 2 -20 -3 -23 -12z"/>
<path d="M2180 7026 c0 -10 9 -16 21 -16 24 0 21 23 -4 28 -10 2 -17 -3 -17
-12z"/>
<path d="M2622 7028 c-28 -28 3 -83 33 -58 8 7 15 20 15 29 0 17 -18 41 -30
41 -3 0 -11 -5 -18 -12z"/>
<path d="M2875 7021 c-14 -44 24 -67 48 -29 8 12 7 21 -2 32 -18 21 -38 20
-46 -3z"/>
<path d="M2105 6535 c-5 -2 -22 -6 -36 -9 -32 -7 -43 -30 -28 -57 8 -16 19
-19 57 -17 l47 3 3 43 c3 42 -5 50 -43 37z"/>
<path d="M3218 6528 c-29 -8 -38 -15 -38 -32 0 -32 19 -46 61 -46 43 0 62 18
57 57 -3 32 -22 37 -80 21z"/>
<path d="M3820 6628 c-11 -12 -20 -30 -20 -40 0 -17 6 -18 63 -12 71 8 77 10
77 29 0 45 -84 61 -120 23z"/>
<path d="M4305 6624 c-44 -47 -30 -58 59 -47 66 9 77 22 47 52 -30 30 -76 27
-106 -5z"/>
<path d="M5311 6530 c-49 -12 -63 -37 -35 -65 11 -11 30 -15 58 -13 41 3 41 3
44 46 3 46 0 48 -67 32z"/>
<path d="M19959 4601 c-18 -14 -24 -29 -24 -59 0 -53 19 -74 64 -70 l36 3 3
60 c3 47 0 62 -14 72 -24 18 -38 16 -65 -6z"/>
<path d="M16984 4615 c-22 -54 -19 -65 21 -65 19 0 35 5 35 10 0 21 -25 90
-33 90 -4 0 -15 -16 -23 -35z"/>
<path d="M6371 4516 c-23 -27 -6 -48 36 -44 33 3 38 6 38 28 0 21 -5 26 -31
28 -19 2 -36 -3 -43 -12z"/>
<path d="M7646 4607 c-14 -10 -17 -25 -14 -72 l3 -60 37 -3 c28 -2 40 2 52 20
25 35 21 83 -10 107 -31 24 -44 26 -68 8z"/>
<path d="M7902 4604 c-12 -8 -22 -22 -22 -31 0 -13 8 -14 52 -9 29 4 55 9 57
12 8 7 -32 44 -48 44 -9 0 -27 -7 -39 -16z"/>
<path d="M8442 4604 c-12 -8 -22 -22 -22 -31 0 -13 8 -14 52 -9 29 4 55 9 57
12 8 7 -32 44 -48 44 -9 0 -27 -7 -39 -16z"/>
<path d="M9168 4609 c-24 -14 -23 -49 1 -49 72 0 106 31 55 50 -31 12 -34 12
-56 -1z"/>
<path d="M17578 4609 c-24 -14 -23 -49 1 -49 72 0 106 31 55 50 -31 12 -34 12
-56 -1z"/>
<path d="M18043 4605 c-65 -45 -18 -154 56 -130 47 14 42 118 -6 136 -30 11
-25 12 -50 -6z"/>
<path d="M18676 4604 c-22 -21 -20 -44 3 -44 69 0 103 27 62 50 -27 14 -47 13
-65 -6z"/>
<path d="M19393 4594 c-21 -21 -24 -32 -20 -61 8 -46 23 -63 58 -63 34 0 59
32 59 75 0 63 -55 91 -97 49z"/>
<path d="M9353 3868 c-19 -24 -24 -55 -11 -82 10 -23 17 -27 47 -24 l36 3 0
55 c0 54 0 55 -31 58 -17 2 -35 -3 -41 -10z"/>
<path d="M20373 3868 c-19 -24 -24 -55 -11 -82 10 -23 17 -27 47 -24 l36 3 0
55 c0 54 0 55 -31 58 -17 2 -35 -3 -41 -10z"/>
<path d="M5933 3888 c-24 -49 -23 -68 4 -74 38 -10 49 8 33 56 -15 46 -22 49
-37 18z"/>
<path d="M16953 3888 c-24 -49 -23 -68 4 -74 38 -10 49 8 33 56 -15 46 -22 49
-37 18z"/>
<path d="M8055 3860 c-15 -17 -17 -27 -9 -58 8 -33 13 -37 45 -40 32 -3 38 0
49 29 12 27 11 36 -1 58 -19 34 -59 39 -84 11z"/>
<path d="M8897 3862 c-20 -22 -22 -73 -5 -90 18 -18 75 -15 82 4 10 26 7 79
-6 92 -18 18 -53 15 -71 -6z"/>
<path d="M19075 3860 c-15 -17 -17 -27 -9 -58 8 -33 13 -37 45 -40 32 -3 38 0
49 29 12 27 11 36 -1 58 -19 34 -59 39 -84 11z"/>
<path d="M19917 3862 c-20 -22 -22 -73 -5 -90 18 -18 75 -15 82 4 10 26 7 79
-6 92 -18 18 -53 15 -71 -6z"/>
<path d="M6395 3864 c-32 -33 -8 -44 63 -28 19 4 21 8 12 24 -13 24 -52 26
-75 4z"/>
<path d="M9537 3862 c-22 -24 -13 -32 34 -32 42 0 57 13 39 35 -17 21 -54 19
-73 -3z"/>
<path d="M17415 3864 c-32 -33 -8 -44 63 -28 19 4 21 8 12 24 -13 24 -52 26
-75 4z"/>
<path d="M20557 3862 c-22 -24 -13 -32 34 -32 42 0 57 13 39 35 -17 21 -54 19
-73 -3z"/>
<path d="M9103 3332 c-16 -10 -26 -56 -18 -81 8 -27 40 -44 66 -36 17 6 20 14
17 63 -3 53 -5 57 -28 60 -14 1 -30 -1 -37 -6z"/>
<path d="M9960 3320 c-35 -35 -21 -93 26 -104 38 -10 54 9 54 64 0 34 -4 50
-16 54 -27 10 -43 7 -64 -14z"/>
<path d="M20123 3332 c-16 -10 -26 -56 -18 -81 8 -27 40 -44 66 -36 17 6 20
14 17 63 -3 53 -5 57 -28 60 -14 1 -30 -1 -37 -6z"/>
<path d="M20980 3320 c-35 -35 -21 -93 26 -104 38 -10 54 9 54 64 0 34 -4 50
-16 54 -27 10 -43 7 -64 -14z"/>
<path d="M14476 3317 c-14 -10 -16 -16 -7 -22 15 -9 35 8 30 24 -3 8 -10 7
-23 -2z"/>
<path d="M14595 3231 c-3 -5 -1 -12 5 -16 12 -7 30 2 30 16 0 12 -27 12 -35 0z"/>
<path d="M14335 3209 c-10 -15 3 -25 16 -12 7 7 7 13 1 17 -6 3 -14 1 -17 -5z"/>
<path d="M14264 3178 c-60 -68 -87 -118 -65 -118 12 0 61 63 61 77 0 14 28 25
35 13 10 -17 36 2 33 24 -4 30 -39 32 -64 4z"/>
<path d="M14360 3140 c-17 -41 -8 -47 24 -17 31 29 33 47 7 47 -11 0 -23 -12
-31 -30z"/>
<path d="M14155 3130 c-3 -5 3 -10 14 -10 12 0 21 5 21 10 0 6 -6 10 -14 10
-8 0 -18 -4 -21 -10z"/>
<path d="M14582 3128 c6 -18 28 -21 28 -4 0 9 -7 16 -16 16 -9 0 -14 -5 -12
-12z"/>
<path d="M14425 3110 c-3 -5 0 -10 9 -10 8 0 16 -6 19 -12 2 -7 7 -10 11 -7
10 9 -5 39 -19 39 -8 0 -17 -4 -20 -10z"/>
<path d="M14337 3045 c-4 -8 -2 -17 3 -20 6 -4 10 3 10 14 0 25 -6 27 -13 6z"/>
<path d="M14207 2993 c-12 -11 -8 -23 7 -23 8 0 16 7 20 15 5 15 -14 21 -27 8z"/>
<path d="M14910 2980 c0 -5 5 -10 11 -10 5 0 7 5 4 10 -3 6 -8 10 -11 10 -2 0
-4 -4 -4 -10z"/>
<path d="M14840 2969 c0 -5 5 -7 10 -4 6 3 10 8 10 11 0 2 -4 4 -10 4 -5 0
-10 -5 -10 -11z"/>
<path d="M13690 2960 c-13 -8 -12 -10 3 -10 9 0 17 5 17 10 0 12 -1 12 -20 0z"/>
<path d="M13785 2950 c-19 -21 -14 -50 8 -50 22 0 39 27 32 50 -8 25 -17 25
-40 0z"/>
<path d="M14020 2930 c-30 -3 -66 -13 -79 -22 l-24 -17 27 -7 c18 -4 25 -11
22 -21 -3 -8 -6 -16 -6 -19 0 -2 -7 -1 -15 2 -12 5 -14 0 -9 -23 4 -20 1 -33
-10 -42 -9 -8 -16 -17 -16 -21 0 -11 55 17 70 35 10 12 16 13 27 4 10 -9 30
-4 88 25 89 44 107 67 67 86 -43 20 -83 26 -142 20z"/>
<path d="M14605 2870 c-4 -6 -2 -17 4 -24 8 -10 6 -18 -9 -31 -34 -31 -21 -95
18 -95 10 0 13 8 9 27 -3 15 -3 33 0 40 6 16 40 17 45 1 3 -7 7 -4 9 7 6 25
-26 91 -36 75 -5 -8 -10 -8 -20 0 -10 8 -15 8 -20 0z"/>
<path d="M14276 2851 c-4 -5 -2 -12 3 -15 5 -4 12 -2 15 3 4 5 2 12 -3 15 -5
4 -12 2 -15 -3z"/>
<path d="M14395 2820 c-3 -5 -1 -10 4 -10 6 0 11 5 11 10 0 6 -2 10 -4 10 -3
0 -8 -4 -11 -10z"/>
<path d="M14740 2800 c0 -5 5 -10 10 -10 6 0 10 5 10 10 0 6 -4 10 -10 10 -5
0 -10 -4 -10 -10z"/>
<path d="M13870 2780 c0 -5 5 -10 10 -10 6 0 10 5 10 10 0 6 -4 10 -10 10 -5
0 -10 -4 -10 -10z"/>
<path d="M13510 2760 c0 -5 4 -10 9 -10 6 0 13 5 16 10 3 6 -1 10 -9 10 -9 0
-16 -4 -16 -10z"/>
<path d="M13445 2730 c3 -5 8 -10 11 -10 2 0 4 5 4 10 0 6 -5 10 -11 10 -5 0
-7 -4 -4 -10z"/>
<path d="M13742 2713 c2 -10 11 -19 21 -21 24 -5 21 15 -4 28 -18 10 -20 9
-17 -7z"/>
<path d="M13957 2716 c-4 -10 -1 -13 9 -9 7 3 14 9 14 14 0 14 -17 10 -23 -5z"/>
<path d="M14450 2720 c0 -5 5 -10 10 -10 6 0 10 5 10 10 0 6 -4 10 -10 10 -5
0 -10 -4 -10 -10z"/>
<path d="M14728 2723 c7 -3 16 -2 19 1 4 3 -2 6 -13 5 -11 0 -14 -3 -6 -6z"/>
<path d="M14490 2705 c0 -8 7 -15 15 -15 8 0 15 7 15 15 0 8 -7 15 -15 15 -8
0 -15 -7 -15 -15z"/>
<path d="M14675 2710 c-3 -5 -1 -10 4 -10 6 0 11 5 11 10 0 6 -2 10 -4 10 -3
0 -8 -4 -11 -10z"/>
<path d="M13467 2694 c-9 -10 2 -24 19 -24 8 0 14 7 14 15 0 15 -21 21 -33 9z"/>
<path d="M14268 2663 c7 -3 16 -2 19 1 4 3 -2 6 -13 5 -11 0 -14 -3 -6 -6z"/>
<path d="M13960 2625 c0 -11 7 -15 23 -13 12 2 22 8 22 13 0 6 -10 11 -22 13
-16 2 -23 -2 -23 -13z"/>
<path d="M13588 2623 c6 -2 18 -2 25 0 6 3 1 5 -13 5 -14 0 -19 -2 -12 -5z"/>
<path d="M14035 2519 c-11 -17 1 -21 15 -4 8 9 8 15 2 15 -6 0 -14 -5 -17 -11z"/>
<path d="M13980 2510 c0 -5 7 -10 15 -10 8 0 15 5 15 10 0 6 -7 10 -15 10 -8
0 -15 -4 -15 -10z"/>
<path d="M13716 2492 c-6 -11 41 -38 50 -29 4 3 4 13 1 22 -7 16 -42 21 -51 7z"/>
<path d="M14174 2436 c-8 -22 -2 -27 16 -16 12 7 12 12 3 21 -10 10 -14 9 -19
-5z"/>
<path d="M14062 2425 c-18 -8 -39 -12 -47 -9 -17 7 -19 -4 -6 -25 6 -10 17
-11 37 -6 16 5 35 7 42 6 7 -1 12 9 12 24 0 14 -1 25 -2 25 -2 -1 -18 -7 -36
-15z"/>
<path d="M14140 2355 c0 -10 10 -15 29 -15 20 0 30 -6 34 -20 6 -23 34 -37 48
-23 7 7 0 21 -18 41 -20 24 -36 32 -60 32 -23 0 -33 -5 -33 -15z"/>
<path d="M13958 2353 c7 -3 16 -2 19 1 4 3 -2 6 -13 5 -11 0 -14 -3 -6 -6z"/>
<path d="M14367 2223 c-15 -14 -7 -43 12 -43 11 0 23 -4 26 -10 9 -15 25 -12
25 5 0 16 -34 55 -48 55 -5 0 -12 -3 -15 -7z"/>
<path d="M14740 2039 c0 -5 5 -7 10 -4 6 3 10 8 10 11 0 2 -4 4 -10 4 -5 0
-10 -5 -10 -11z"/>
<path d="M14820 2023 c0 -17 19 -35 29 -29 18 12 12 36 -9 36 -11 0 -20 -3
-20 -7z"/>
<path d="M14780 1965 c-54 -12 -55 -12 -27 -23 37 -16 52 -15 67 3 7 8 19 15
27 15 12 0 14 -7 10 -30 -4 -16 -3 -30 1 -30 13 1 46 30 34 30 -7 0 -17 11
-22 25 -11 28 -12 28 -90 10z"/>
<path d="M14820 1910 c0 -5 5 -10 11 -10 5 0 7 5 4 10 -3 6 -8 10 -11 10 -2 0
-4 -4 -4 -10z"/>
<path d="M14907 1900 c-7 -27 11 -36 28 -14 19 26 18 34 -4 34 -10 0 -21 -9
-24 -20z"/>
<path d="M15370 1890 c0 -5 4 -10 9 -10 6 0 13 5 16 10 3 6 -1 10 -9 10 -9 0
-16 -4 -16 -10z"/>
<path d="M14798 1853 c7 -3 16 -2 19 1 4 3 -2 6 -13 5 -11 0 -14 -3 -6 -6z"/>
<path d="M15040 1840 c-13 -8 -12 -10 3 -10 9 0 17 5 17 10 0 12 -1 12 -20 0z"/>
<path d="M6259 3254 c-11 -14 -10 -18 6 -30 30 -22 59 -14 63 19 3 24 0 27
-26 27 -16 0 -36 -7 -43 -16z"/>
<path d="M6893 3325 c-29 -20 -30 -64 -3 -93 24 -26 39 -27 65 -8 14 10 19 25
19 55 -2 48 -1 47 -34 56 -16 3 -34 0 -47 -10z"/>
<path d="M8123 3263 c-23 -9 -15 -42 12 -49 36 -9 55 2 55 31 0 21 -5 25 -27
24 -16 0 -34 -3 -40 -6z"/>
<path d="M8476 3324 c-9 -9 -16 -32 -16 -55 0 -33 4 -41 26 -50 48 -18 64 -4
64 56 0 39 -4 54 -16 59 -25 10 -42 7 -58 -10z"/>
<path d="M8847 3263 c-14 -13 -6 -42 13 -48 33 -10 60 4 60 31 0 21 -5 24 -33
24 -19 0 -37 -3 -40 -7z"/>
<path d="M9287 3322 c-26 -28 -22 -78 8 -98 30 -19 58 -11 73 20 29 63 -38
126 -81 78z"/>
<path d="M9566 3324 c-27 -27 -17 -99 16 -109 10 -4 30 0 43 9 45 30 26 116
-25 116 -10 0 -26 -7 -34 -16z"/>
<path d="M10150 3325 c-20 -24 -17 -85 5 -101 10 -8 25 -14 32 -14 23 0 53 39
53 68 0 50 -61 82 -90 47z"/>
<path d="M10400 3255 c-18 -21 5 -47 39 -43 20 2 27 9 29 31 3 24 0 27 -26 27
-16 0 -35 -7 -42 -15z"/>
<path d="M17279 3254 c-11 -14 -10 -18 6 -30 30 -22 59 -14 63 19 3 24 0 27
-26 27 -16 0 -36 -7 -43 -16z"/>
<path d="M17911 3321 c-27 -27 -27 -61 -1 -89 24 -26 39 -27 65 -8 14 10 19
25 19 55 -2 48 -1 47 -36 56 -19 5 -32 1 -47 -14z"/>
<path d="M19143 3263 c-23 -9 -15 -42 12 -49 36 -9 55 2 55 31 0 21 -5 25 -27
24 -16 0 -34 -3 -40 -6z"/>
<path d="M19496 3324 c-9 -9 -16 -32 -16 -55 0 -33 4 -41 26 -50 48 -18 64 -4
64 56 0 39 -4 54 -16 59 -25 10 -42 7 -58 -10z"/>
<path d="M19867 3263 c-14 -13 -6 -42 13 -48 33 -10 60 4 60 31 0 21 -5 24
-33 24 -19 0 -37 -3 -40 -7z"/>
<path d="M20307 3322 c-26 -28 -22 -78 8 -98 30 -19 58 -11 73 20 29 63 -38
126 -81 78z"/>
<path d="M20586 3324 c-28 -28 -17 -99 17 -108 12 -3 32 1 44 10 43 28 23 114
-27 114 -10 0 -26 -7 -34 -16z"/>
<path d="M21170 3325 c-20 -24 -17 -85 5 -101 10 -8 25 -14 32 -14 23 0 53 39
53 68 0 50 -61 82 -90 47z"/>
<path d="M21420 3255 c-10 -12 -10 -18 0 -30 27 -32 86 -6 73 33 -6 17 -58 15
-73 -3z"/>
<path d="M15018 2836 c-23 -17 -23 -26 2 -26 13 0 20 7 20 20 0 23 0 23 -22 6z"/>
<path d="M13488 2333 c7 -3 16 -2 19 1 4 3 -2 6 -13 5 -11 0 -14 -3 -6 -6z"/>
<path d="M13580 2320 c0 -5 5 -10 10 -10 6 0 10 5 10 10 0 6 -4 10 -10 10 -5
0 -10 -4 -10 -10z"/>
<path d="M13170 2300 c0 -13 5 -20 13 -17 6 2 12 10 12 17 0 7 -6 15 -12 18
-8 2 -13 -5 -13 -18z"/>
<path d="M13250 2225 c0 -8 9 -15 20 -15 24 0 27 15 4 24 -22 9 -24 8 -24 -9z"/>
<path d="M13385 2160 c3 -5 8 -10 11 -10 2 0 4 5 4 10 0 6 -5 10 -11 10 -5 0
-7 -4 -4 -10z"/>
<path d="M13208 1919 c-43 -24 -1 -62 55 -52 34 7 31 18 -8 43 -22 14 -35 16
-47 9z"/>
<path d="M13360 1806 c-5 -14 -14 -26 -20 -26 -5 0 -10 -16 -10 -35 0 -19 4
-35 8 -35 18 0 52 42 54 65 0 14 1 30 2 37 2 23 -24 19 -34 -6z"/>
<path d="M13217 1795 c-5 -30 10 -29 31 3 13 20 13 22 -6 22 -13 0 -21 -8 -25
-25z"/>
<path d="M13104 1733 c4 -16 7 -40 6 -56 0 -22 7 -31 35 -44 29 -14 37 -14 48
-4 9 11 9 14 0 18 -15 6 -17 39 -3 48 8 5 5 50 -5 62 -1 2 -16 -1 -33 -6 -20
-6 -32 -6 -32 0 0 5 -5 9 -11 9 -7 0 -9 -10 -5 -27z"/>
<path d="M13246 1665 c4 -8 10 -15 15 -15 5 0 9 7 9 15 0 8 -7 15 -15 15 -9 0
-12 -6 -9 -15z"/>
<path d="M12990 1600 c-9 -17 -7 -22 15 -30 39 -15 42 -13 37 20 -5 36 -35 41
-52 10z"/>
<path d="M12930 1535 c7 -8 16 -15 21 -15 5 0 9 7 9 15 0 9 -9 15 -21 15 -18
0 -19 -2 -9 -15z"/>
<path d="M12732 1348 c2 -23 9 -34 22 -36 23 -5 48 18 27 26 -7 2 -22 13 -33
24 -19 19 -19 19 -16 -14z"/>
<path d="M12687 1273 c-11 -10 -8 -41 4 -49 6 -3 18 1 27 9 13 13 13 19 2 31
-14 17 -23 20 -33 9z"/>
<path d="M13336 961 c-4 -7 -5 -15 -2 -18 9 -9 19 4 14 18 -4 11 -6 11 -12 0z"/>
<path d="M12263 1664 c-3 -8 -2 -19 3 -24 12 -11 48 16 39 29 -9 16 -35 13
-42 -5z"/>
<path d="M12331 1651 c-11 -7 -8 -14 14 -35 29 -27 65 -31 73 -8 2 7 -6 12
-24 12 -15 0 -24 3 -21 7 7 6 -11 33 -22 33 -3 0 -12 -4 -20 -9z"/>
<path d="M19664 1766 c-11 -30 1 -61 25 -64 60 -9 105 36 65 65 -24 18 -83 17
-90 -1z"/>
<path d="M19664 1646 c-3 -8 -4 -27 -2 -43 2 -22 9 -29 32 -31 70 -8 111 34
66 70 -27 22 -88 24 -96 4z"/>
<path d="M8129 1701 c-27 -22 -33 -87 -10 -115 20 -24 67 -20 85 6 47 67 -15
158 -75 109z"/>
<path d="M18963 1710 c-15 -6 -23 -18 -23 -33 0 -24 1 -24 50 -14 53 10 65 28
31 47 -23 12 -28 12 -58 0z"/>
<path d="M19940 1700 c-37 -37 -17 -49 59 -34 35 7 38 15 15 38 -21 22 -50 20
-74 -4z"/>
<path d="M20403 1694 c-21 -21 -24 -32 -20 -61 3 -19 11 -41 18 -49 16 -20 63
-17 82 4 24 26 22 87 -3 112 -27 27 -46 25 -77 -6z"/>
<path d="M17581 1415 c-32 -11 -32 -12 -11 -18 25 -6 60 7 60 23 0 12 -5 11
-49 -5z"/>
<path d="M17645 1350 c4 -6 11 -8 16 -5 14 9 11 15 -7 15 -8 0 -12 -5 -9 -10z"/>
<path d="M17667 1246 c-27 -21 -2 -30 28 -10 14 9 25 18 25 20 0 9 -37 2 -53
-10z"/>
<path d="M17580 1180 c0 -5 11 -10 25 -10 14 0 25 5 25 10 0 6 -11 10 -25 10
-14 0 -25 -4 -25 -10z"/>
<path d="M14706 1518 c-17 -54 -15 -60 12 -53 35 9 34 7 19 38 -13 29 -25 35
-31 15z"/>
<path d="M14788 1503 c7 -3 16 -2 19 1 4 3 -2 6 -13 5 -11 0 -14 -3 -6 -6z"/>
<path d="M14719 1394 c-12 -14 -11 -16 5 -13 11 2 21 10 24 17 5 17 -13 15
-29 -4z"/>
<path d="M14780 1360 c0 -23 5 -30 19 -30 11 0 23 5 26 10 11 18 -6 50 -26 50
-14 0 -19 -7 -19 -30z"/>
<path d="M14657 1332 c-19 -20 -23 -67 -7 -77 6 -3 10 1 10 10 0 14 6 16 27
10 15 -3 30 -10 33 -13 8 -11 49 -32 61 -32 6 0 17 -7 26 -16 12 -11 19 -12
27 -4 8 8 5 16 -11 30 -13 10 -23 21 -23 26 0 12 -34 33 -54 34 -11 0 -32 11
-46 25 -26 25 -27 25 -43 7z"/>
<path d="M14624 1133 c4 -21 9 -50 10 -64 3 -30 50 -92 83 -110 18 -10 28 -10
47 0 43 24 106 -16 110 -68 1 -18 -1 -34 -6 -37 -4 -3 -8 -14 -8 -25 0 -14 6
-19 17 -17 12 2 22 21 31 62 7 33 11 65 8 72 -2 6 -31 26 -63 44 -77 43 -86
56 -67 86 20 29 10 71 -12 53 -8 -6 -14 -27 -14 -45 0 -29 -4 -34 -23 -34 -37
0 -65 26 -59 55 5 28 -21 65 -46 65 -12 0 -13 -8 -8 -37z"/>
<path d="M14963 974 c-9 -25 13 -40 31 -21 9 9 16 20 16 26 0 17 -40 13 -47
-5z"/>
<path d="M14590 910 c0 -21 40 -38 59 -25 18 10 13 21 -14 33 -36 17 -45 15
-45 -8z"/>
<path d="M14715 890 c-8 -13 20 -24 36 -15 8 6 7 10 -2 16 -18 11 -26 11 -34
-1z"/>
<path d="M15015 870 c-19 -8 -19 -9 3 -9 12 -1 22 4 22 9 0 6 -1 10 -2 9 -2 0
-12 -4 -23 -9z"/>
<path d="M14800 850 c0 -5 5 -10 11 -10 5 0 7 5 4 10 -3 6 -8 10 -11 10 -2 0
-4 -4 -4 -10z"/>
<path d="M6777 1223 c-15 -15 18 -33 57 -32 34 2 36 3 11 6 -16 3 -37 11 -46
19 -9 8 -19 11 -22 7z"/>
<path d="M6710 1110 c20 -13 53 -13 45 0 -3 6 -18 10 -33 10 -21 0 -24 -2 -12
-10z"/>
<path d="M8126 1015 c-26 -20 -34 -97 -12 -130 13 -20 25 -25 56 -25 48 0 70
27 70 87 0 69 -63 107 -114 68z"/>
<path d="M19146 1015 c-26 -20 -34 -97 -12 -130 13 -20 25 -25 56 -25 48 0 70
27 70 87 0 69 -63 107 -114 68z"/>
<path d="M19872 998 c-5 -7 -13 -27 -16 -45 -6 -25 -4 -32 12 -37 31 -10 55 4
47 28 -4 11 -9 31 -12 44 -6 25 -16 28 -31 10z"/>
<path d="M9343 973 c-13 -5 -18 -69 -7 -97 6 -17 50 -22 71 -8 6 4 15 20 18
35 13 52 -32 91 -82 70z"/>
<path d="M9533 905 c-33 -23 -19 -47 26 -43 26 2 37 8 39 22 7 34 -30 46 -65
21z"/>
<path d="M20333 905 c-31 -22 -19 -45 24 -45 32 0 34 2 31 27 -4 33 -24 39
-55 18z"/>
<path d="M8422 968 c-18 -24 -23 -56 -11 -82 16 -34 72 -37 90 -5 14 27 3 85
-17 93 -25 10 -51 7 -62 -6z"/>
<path d="M9867 962 c-25 -28 -21 -32 26 -32 51 0 60 6 46 31 -12 24 -51 24
-72 1z"/>
<path d="M19442 968 c-18 -24 -23 -56 -11 -82 16 -34 72 -37 90 -5 14 27 3 85
-17 93 -25 10 -51 7 -62 -6z"/>
<path d="M20666 964 c-19 -18 -21 -75 -4 -92 7 -7 24 -12 38 -12 34 0 50 17
50 53 0 61 -47 89 -84 51z"/>
</g>
</svg>
